<svg version="1.1" id="Capa_1" xmlns="http://www.w3.org/2000/svg" x="0" y="0" viewBox="0 0 596.7 148.8" style="enable-background:new 0 0 596.7 148.8" xml:space="preserve"><style>.st0{fill:#fff}</style><path class="st0" d="M3.9 4.3h43.5l32.9 96.5h.4l31.1-96.5h43.4v140.3h-28.9V45.1h-.4l-34.3 99.5H67.7L33.3 46.2h-.4v98.4h-29V4.3zM474.1 4.3H505v53.9h56.8V4.3h30.9v140.3h-30.9V84.1H505v60.5h-30.9V4.3zM375.7 1.6c-8.4.3-16.4 2.1-23.5 5.1-8.2 3.4-15.5 8.5-21.6 14.9-6 6.4-10.7 14.1-14 23.1-.7 2-1.4 4-2 6.2-.6-2.1-1.2-4.1-2-6.2a66.3 66.3 0 0 0-13.8-23 61.1 61.1 0 0 0-21.6-15.1c-7.3-3-15.2-4.8-23.6-5.2h-11.4c-8.4.3-16.4 2.1-23.5 5.1-8.2 3.4-15.5 8.5-21.6 14.9-6 6.4-10.7 14.1-14 23.1-3 8.2-4.6 17.4-4.8 27.3l-.2 10h29.1l.2-9.7c.1-6.9 1.1-12.9 2.9-18.1 2-5.4 4.6-9.9 7.9-13.3 3.3-3.4 7.3-6.2 11.9-8 4.2-1.7 8.9-2.6 13.9-2.7l3.1-.1 4.7.1c5.1.1 9.9 1 14.1 2.7 4.4 1.8 8.3 4.4 11.6 7.9 3.3 3.5 6 8 7.8 13.4 2 5.5 3 12.2 3 19.7s-1 14.2-3 19.9c-2 5.5-4.6 10.1-7.9 13.7a31.9 31.9 0 0 1-11.9 8.1c-4.2 1.8-8.8 2.6-13.8 2.8l-9.6.2v28.7l10.1-.2c9-.2 17.6-2 25.2-5.4 8.2-3.6 15.4-8.8 21.4-15.4 5.9-6.5 10.5-14.3 13.7-23.3 2.4-6.5 3.8-13.5 4.5-21h23.5l.2-9.7c.1-6.9 1.1-12.9 2.9-18.1 2-5.4 4.6-9.9 7.9-13.3 3.3-3.4 7.3-6.2 11.9-8 4.2-1.7 8.9-2.6 13.9-2.7l3.1-.1 4.7.1c5.1.1 9.9 1 14.1 2.7 4.4 1.8 8.3 4.4 11.6 7.9 3.3 3.5 6 8 7.8 13.4 2 5.5 3 12.2 3 19.7s-1 14.2-3 19.9c-2 5.5-4.6 10.1-7.9 13.7a31.9 31.9 0 0 1-11.9 8.1c-4.2 1.8-8.8 2.6-13.8 2.8l-9.6.2v28.7l10.1-.2c9-.2 17.6-2 25.2-5.4 8.2-3.6 15.4-8.8 21.4-15.4 5.9-6.5 10.5-14.3 13.7-23.3 3.2-8.8 4.8-18.5 4.8-29 0-10.6-1.7-20.4-4.9-29.1a66.3 66.3 0 0 0-13.8-23 61.1 61.1 0 0 0-21.6-15.1c-7.3-3-15.2-4.8-23.6-5.2"/></svg>