<svg version="1.1" id="Capa_1" xmlns="http://www.w3.org/2000/svg" x="0" y="0" viewBox="0 0 581.5 197" style="enable-background:new 0 0 581.5 197" xml:space="preserve"><style>.st0{fill:#fff}</style><path d="M2.4 4.6H45l32.2 94.6h.4L108 4.6h42.5V142h-28.4V44.5h-.4L88.1 142H64.9L31.1 45.6h-.4V142H2.4V4.6zM462.9 4.6h30.3v52.8h55.6V4.6h30.3V142h-30.3V82.7h-55.6V142h-30.3V4.6zM366.5 1.9c-8.3.3-16 2-23.1 5a62.4 62.4 0 0 0-21.1 14.6c-5.9 6.2-10.5 13.8-13.7 22.6-.7 1.9-1.3 3.9-1.9 6.1-.6-2-1.2-4-1.9-6.1-3.2-8.7-7.8-16.3-13.6-22.5-5.9-6.3-13-11.3-21.1-14.8-7.1-3-14.9-4.7-23.2-5.1h-11.1c-8.3.3-16 2-23.1 5a62.4 62.4 0 0 0-21.1 14.6c-5.9 6.2-10.5 13.8-13.7 22.6-3 8.1-4.5 17-4.7 26.7l-.2 9.8h28.5l.2-9.5c.1-6.7 1.1-12.6 2.9-17.7 1.9-5.3 4.5-9.7 7.8-13.1 3.3-3.4 7.1-6.1 11.6-7.9 4.1-1.6 8.7-2.6 13.6-2.7l3.1-.1 4.6.1c5 .1 9.7 1 13.8 2.7 4.3 1.7 8.2 4.3 11.3 7.8 3.3 3.5 5.9 7.9 7.7 13.2 1.9 5.4 3 11.9 3 19.3 0 7.3-1 13.9-3 19.5-1.9 5.4-4.5 9.9-7.8 13.5-3.2 3.5-7.1 6.2-11.6 8a39.2 39.2 0 0 1-13.6 2.8l-9.4.2v28.1l9.9-.2c8.8-.2 17.2-1.9 24.7-5.3 8.1-3.6 15.1-8.6 21-15.1 5.8-6.3 10.3-14 13.5-22.8 2.3-6.3 3.7-13.3 4.4-20.6h23l.2-9.5c.1-6.7 1.1-12.6 2.9-17.7 1.9-5.3 4.5-9.7 7.8-13.1 3.3-3.4 7.1-6.1 11.6-7.9 4.1-1.6 8.7-2.6 13.6-2.7l3.1-.1 4.6.1c5 .1 9.7 1 13.8 2.7 4.3 1.7 8.2 4.3 11.3 7.8 3.3 3.5 5.9 7.9 7.7 13.2 1.9 5.4 3 11.9 3 19.3 0 7.3-1 13.9-3 19.5-1.9 5.4-4.5 9.9-7.8 13.5-3.2 3.5-7.1 6.2-11.6 8a39.2 39.2 0 0 1-13.6 2.8l-9.4.2v28.1l9.9-.2c8.8-.2 17.2-1.9 24.7-5.3 8.1-3.6 15.1-8.6 21-15.1 5.8-6.3 10.3-14 13.5-22.8 3.2-8.6 4.7-18.2 4.7-28.4 0-10.4-1.6-20-4.8-28.5-3.2-8.7-7.8-16.3-13.6-22.5-5.9-6.3-13-11.3-21.1-14.8-7.1-3-14.9-4.7-23.2-5.1M141.3 177l-4.5 18.1H132l-4.4-18.1v18h-4.9v-23.2h8.6L135 186l3.7-14.2h8.4V195h-5.8v-18zM161.9 195.3c-1.5 0-3-.3-4.3-.8-1.3-.5-2.6-1.2-3.6-2.3-1.1-1-1.8-2.2-2.5-3.7-.6-1.4-.9-3.1-.9-4.9v-.4c0-1.8.3-3.5.9-4.9.6-1.4 1.4-2.7 2.5-3.7s2.2-1.7 3.6-2.3c1.3-.6 2.8-.8 4.3-.8s3 .3 4.3.8c1.3.6 2.6 1.3 3.7 2.3 1.1 1 1.8 2.2 2.5 3.7.6 1.4.9 3.1.9 4.9v.4c0 1.8-.3 3.5-.9 4.9a10.53 10.53 0 0 1-6.2 6c-1.3.5-2.8.8-4.3.8zm4.9-12.4c0-1-.1-1.8-.3-2.7-.2-.9-.5-1.6-.9-2.3a4.29 4.29 0 0 0-3.7-2.1c-.9 0-1.6.2-2.2.6-.7.4-1.2.9-1.5 1.5-.4.7-.7 1.4-.9 2.3-.2.9-.3 1.7-.3 2.7v1c0 1 .1 1.8.3 2.7.2.9.5 1.6.9 2.3a4.29 4.29 0 0 0 3.7 2.1 4.29 4.29 0 0 0 3.7-2.1c.4-.7.7-1.4.9-2.3.2-.9.3-1.7.3-2.7v-1zM176.8 171.9h8.9c1.7 0 3.3.2 4.7.7 1.4.5 2.7 1.2 3.7 2.1 1.1 1 1.8 2.1 2.4 3.6.6 1.4.9 3.1.9 5v.5c0 1.9-.3 3.7-.9 5.1a9.9 9.9 0 0 1-2.4 3.6c-1.1 1-2.3 1.6-3.7 2.1-1.4.5-3 .7-4.7.7h-8.9v-23.4zm6.2 4.3v14.5h2.3c2.1 0 3.7-.6 4.6-1.6 1-1.1 1.4-2.8 1.4-5.2v-1c0-2.4-.5-4.1-1.4-5.2-1-1.1-2.5-1.5-4.6-1.5H183zM201.1 171.9h16v4.3h-9.9v4.9h7.2v4.1h-7.2v5.5h10.2v4.3h-16.3v-23.1zM221.3 171.9h9.4c3.1 0 5.4.7 6.9 1.9s2.4 3.1 2.4 5.3v.3c0 1.2-.4 2.4-1.1 3.5-.7 1.1-1.6 1.9-2.9 2.6l4.4 9.5h-6.2l-3.8-8.4h-3.1v8.4h-6.2l.2-23.1zm6.2 4.3v6.4h3.1c1.2 0 2-.3 2.6-1 .6-.6.9-1.3.9-2.2v-.4c0-2-1.2-3-3.5-3l-3.1.2zM263.3 195h-5.5l-9-15.2V195h-4.9v-23.2h6.3l8.2 13.6v-13.6h4.9V195zM283.9 195.3c-1.5 0-3-.3-4.3-.8-1.3-.5-2.6-1.2-3.6-2.3-1.1-1-1.8-2.2-2.5-3.7-.6-1.4-.9-3.1-.9-4.9v-.4c0-1.8.3-3.5.9-4.9.6-1.4 1.4-2.7 2.5-3.7s2.2-1.7 3.6-2.3c1.3-.6 2.8-.8 4.3-.8s3 .3 4.3.8c1.3.6 2.6 1.3 3.7 2.3 1.1 1 1.8 2.2 2.5 3.7.6 1.4.9 3.1.9 4.9v.4c0 1.8-.3 3.5-.9 4.9a10.53 10.53 0 0 1-6.2 6c-1.3.5-2.8.8-4.3.8zm5-12.4c0-1-.1-1.8-.3-2.7-.2-.9-.5-1.6-.9-2.3a4.29 4.29 0 0 0-3.7-2.1c-.9 0-1.6.2-2.2.6-.7.4-1.2.9-1.5 1.5-.4.7-.7 1.4-.9 2.3-.2.9-.3 1.7-.3 2.7v1c0 1 .1 1.8.3 2.7.2.9.5 1.6.9 2.3a4.29 4.29 0 0 0 3.7 2.1 4.29 4.29 0 0 0 3.7-2.1c.4-.7.7-1.4.9-2.3s.3-1.7.3-2.7v-1zM308.3 195.3c-1.4 0-2.8-.2-3.9-.6-1.2-.4-2.2-1-3.1-1.6-.9-.7-1.4-1.6-1.9-2.7s-.7-2.3-.7-3.7v-14.9h6.2v14.7c0 1.3.3 2.3.9 3.1.6.8 1.6 1.2 3.1 1.2s2.4-.4 2.9-1.2c.6-.8.8-1.8.8-3.1v-14.7h5.3v14.9c0 1.4-.2 2.6-.7 3.7-.5 1.1-1.1 1.9-1.9 2.7-.9.7-1.8 1.2-3 1.6-1.3.4-2.7.6-4 .6zM333.2 176.4V195H327v-18.6h-6.2v-4.5h18.5v4.5h-6.1zM358.8 195.3c-1.5 0-3-.3-4.3-.8-1.3-.5-2.6-1.2-3.6-2.3-1.1-1-1.8-2.2-2.5-3.7-.6-1.4-.9-3.1-.9-4.9v-.4c0-1.8.3-3.5.9-4.9.6-1.4 1.4-2.7 2.5-3.7s2.2-1.7 3.6-2.3c1.3-.6 2.8-.8 4.3-.8s3 .3 4.3.8c1.3.6 2.6 1.3 3.7 2.3 1.1 1 1.8 2.2 2.5 3.7.6 1.4.9 3.1.9 4.9v.4c0 1.8-.3 3.5-.9 4.9a10.53 10.53 0 0 1-6.2 6c-1.3.5-2.8.8-4.3.8zm4.9-12.4c0-1-.1-1.8-.3-2.7-.2-.9-.5-1.6-.9-2.3a4.29 4.29 0 0 0-3.7-2.1c-.9 0-1.6.2-2.2.6-.7.4-1.2.9-1.5 1.5-.4.7-.7 1.4-.9 2.3-.2.9-.3 1.7-.3 2.7v1c0 1 .1 1.8.3 2.7.2.9.5 1.6.9 2.3a4.29 4.29 0 0 0 3.7 2.1 4.29 4.29 0 0 0 3.7-2.1c.4-.7.7-1.4.9-2.3s.3-1.7.3-2.7v-1zM373.7 171.9h15.9v4.3h-9.7v5.5h8.1v4.3h-8.1v9h-6.2v-23.1zM412.8 185.3h-7.6v9.7H399v-23.2h6.2v9.1h7.5v-9.1h6.2V195h-6.2l.1-9.7zM433.8 195.3c-1.5 0-3-.3-4.3-.8-1.3-.5-2.6-1.2-3.6-2.3-1.1-1-1.8-2.2-2.5-3.7-.6-1.4-.9-3.1-.9-4.9v-.4c0-1.8.3-3.5.9-4.9.6-1.4 1.4-2.7 2.5-3.7s2.2-1.7 3.6-2.3c1.3-.6 2.8-.8 4.3-.8s3 .3 4.3.8c1.3.6 2.6 1.3 3.7 2.3 1.1 1 1.8 2.2 2.5 3.7.6 1.4.9 3.1.9 4.9v.4c0 1.8-.3 3.5-.9 4.9a10.53 10.53 0 0 1-6.2 6c-1.3.5-2.8.8-4.3.8zm4.9-12.4c0-1-.1-1.8-.3-2.7s-.5-1.6-.9-2.3a4.29 4.29 0 0 0-3.7-2.1c-.9 0-1.6.2-2.2.6-.7.4-1.2.9-1.5 1.5-.4.7-.7 1.4-.9 2.3-.2.9-.3 1.7-.3 2.7v1c0 1 .1 1.8.3 2.7.2.9.5 1.6.9 2.3a4.29 4.29 0 0 0 3.7 2.1 4.29 4.29 0 0 0 3.7-2.1c.4-.7.7-1.4.9-2.3.2-.9.3-1.7.3-2.7v-1zM467.2 177l-4.5 18.1h-4.8l-4.4-18.1v18h-4.9v-23.2h8.6l3.7 14.2 3.7-14.2h8.4V195h-5.8v-18zM477.5 171.9h16v4.3h-9.9v4.9h7.2v4.1h-7.2v5.5h10.2v4.3h-16.3v-23.1z"/></svg>