<svg xmlns="http://www.w3.org/2000/svg" viewBox="0 0 1080 1080" style="enable-background:new 0 0 1080 1080" xml:space="preserve"><style>.st0{fill:#fff}</style><g id="Capa_2"><path class="st0" d="M311.6 462.2 66.1 513c-4.5.9-5.5 7-1.5 9.3l71 41c2.4 1.4 3.2 4.5 1.8 6.9L15.7 780.9a5 5 0 0 0 .3 5.5l124 165.9c2.2 2.9 6.6 2.6 8.4-.5L311 670.4c1.4-2.4 4.5-3.2 6.9-1.8l71 41c4 2.3 8.8-1.6 7.3-6l-78.8-238c-.8-2.5-3.3-3.9-5.8-3.4z"/><path class="st0" d="m274.5 762.9-110 190.3c-1.9 3.4.5 7.6 4.4 7.6h263.2c2.8 0 5-2.3 5-5V765.4c0-2.8-2.3-5-5-5H278.8c-1.8-.1-3.4.9-4.3 2.5zM554.3 862.8 721 1050c3.1 3.5 8.8 1.3 8.8-3.4v-81.9c0-2.8 2.3-5 5-5h243.4c2 0 3.8-1.2 4.6-3.1l81.7-190.4c1.4-3.3-1-7-4.6-7h-325c-2.8 0-5-2.3-5-5v-81.9c0-4.6-5.7-6.8-8.8-3.4L554.3 856.1a5.04 5.04 0 0 0 0 6.7z"/><path class="st0" d="M833.2 744.6H1053c3.9 0 6.3-4.2 4.4-7.6L925.8 509a5.05 5.05 0 0 0-6.9-1.8L754 602.4a5.05 5.05 0 0 0-1.8 6.9L828.9 742c.9 1.6 2.5 2.6 4.3 2.6zM783.2 446.4l78.8-238c1.5-4.4-3.3-8.3-7.3-6l-71 41c-2.4 1.4-5.5.6-6.9-1.8L655.1 30.8c-1-1.7-3-2.7-5-2.5L444.4 52.8c-3.6.4-5.6 4.4-3.8 7.5l162.5 281.5c1.4 2.4.6 5.5-1.8 6.9l-71 41c-4 2.3-3 8.4 1.5 9.3l245.5 50.8c2.6.5 5.1-.9 5.9-3.4z"/><path class="st0" d="m541.4 264-110-190.4a4.99 4.99 0 0 0-8.7 0l-131.6 228c-1.4 2.4-.6 5.5 1.8 6.9l164.9 95.2c2.4 1.4 5.5.6 6.9-1.8L541.4 269c.9-1.5.9-3.5 0-5z"/></g></svg>