<svg xmlns="http://www.w3.org/2000/svg" viewBox="0 0 1920 1080" width="528" height="297" style="width:100%;height:100%;transform:translate3d(0,0,0);content-visibility:visible;background-color:transparent"><defs><clipPath id="a"><path d="M0 0h1920v1080H0z"/></clipPath><clipPath id="ab"><path d="M0 0h1000v300H0z"/></clipPath><clipPath id="B"><path d="M0 0h1920v1080H0z"/></clipPath><clipPath id="aa"><path d="M0 0h1000v300H0z"/></clipPath><clipPath id="Z"><path d="M0 0h1000v300H0z"/></clipPath><clipPath id="Y"><path d="M0 0h1000v300H0z"/></clipPath><clipPath id="X"><path d="M0 0h1000v300H0z"/></clipPath><clipPath id="W"><path d="M0 0h1000v300H0z"/></clipPath><clipPath id="V"><path d="M0 0h1000v300H0z"/></clipPath><clipPath id="U"><path d="M0 0h1000v300H0z"/></clipPath><clipPath id="T"><path d="M0 0h1000v300H0z"/></clipPath><clipPath id="S"><path d="M0 0h1000v300H0z"/></clipPath><clipPath id="R"><path d="M0 0h1000v300H0z"/></clipPath><clipPath id="Q"><path d="M0 0h1000v300H0z"/></clipPath><clipPath id="P"><path d="M0 0h1000v300H0z"/></clipPath><clipPath id="O"><path d="M0 0h1000v300H0z"/></clipPath><clipPath id="N"><path d="M0 0h1000v300H0z"/></clipPath><clipPath id="M"><path d="M0 0h1000v300H0z"/></clipPath><clipPath id="L"><path d="M0 0h1000v300H0z"/></clipPath><clipPath id="K"><path d="M0 0h1000v300H0z"/></clipPath><clipPath id="J"><path d="M0 0h1000v300H0z"/></clipPath><clipPath id="I"><path d="M0 0h1000v300H0z"/></clipPath><clipPath id="H"><path d="M0 0h1000v300H0z"/></clipPath><clipPath id="G"><path d="M0 0h1000v300H0z"/></clipPath><clipPath id="F"><path d="M0 0h1000v300H0z"/></clipPath><clipPath id="E"><path d="M0 0h1000v300H0z"/></clipPath><clipPath id="D"><path d="M0 0h1000v300H0z"/></clipPath><clipPath id="C"><path d="M0 0h1000v300H0z"/></clipPath><clipPath id="b"><path d="M0 0h1920v1080H0z"/></clipPath><clipPath id="A"><path d="M0 0h1000v300H0z"/></clipPath><clipPath id="z"><path d="M0 0h1000v300H0z"/></clipPath><clipPath id="y"><path d="M0 0h1000v300H0z"/></clipPath><clipPath id="x"><path d="M0 0h1000v300H0z"/></clipPath><clipPath id="w"><path d="M0 0h1000v300H0z"/></clipPath><clipPath id="v"><path d="M0 0h1000v300H0z"/></clipPath><clipPath id="u"><path d="M0 0h1000v300H0z"/></clipPath><clipPath id="t"><path d="M0 0h1000v300H0z"/></clipPath><clipPath id="s"><path d="M0 0h1000v300H0z"/></clipPath><clipPath id="r"><path d="M0 0h1000v300H0z"/></clipPath><clipPath id="q"><path d="M0 0h1000v300H0z"/></clipPath><clipPath id="p"><path d="M0 0h1000v300H0z"/></clipPath><clipPath id="o"><path d="M0 0h1000v300H0z"/></clipPath><clipPath id="n"><path d="M0 0h1000v300H0z"/></clipPath><clipPath id="m"><path d="M0 0h1000v300H0z"/></clipPath><clipPath id="l"><path d="M0 0h1000v300H0z"/></clipPath><clipPath id="k"><path d="M0 0h1000v300H0z"/></clipPath><clipPath id="j"><path d="M0 0h1000v300H0z"/></clipPath><clipPath id="i"><path d="M0 0h1000v300H0z"/></clipPath><clipPath id="h"><path d="M0 0h1000v300H0z"/></clipPath><clipPath id="g"><path d="M0 0h1000v300H0z"/></clipPath><clipPath id="f"><path d="M0 0h1000v300H0z"/></clipPath><clipPath id="e"><path d="M0 0h1000v300H0z"/></clipPath><clipPath id="d"><path d="M0 0h1000v300H0z"/></clipPath><clipPath id="c"><path d="M0 0h1000v300H0z"/></clipPath></defs><g clip-path="url(#a)"><g clip-path="url(#ab)" style="display:block" transform="matrix(1.85 0 0 1.85 35 262.5)"><g style="display:block" fill="#FFF" stroke="#000" stroke-width=".01" font-size="123" font-family="Basement Grotesque" font-weight="900" aria-label="MODERN OUT" stroke-linejoin="round"><g style="display:inherit"><g style="display:block"><path d="M53.13 199.62v-71.85h.74l14.5 71.85h40.25l14.62-71.85h.74v71.85H150V103h-45.7l-14.62 71.85h-.99L74.18 103H27.11v96.62h26.02z"/></g></g><g style="display:inherit"><g style="display:block"><path d="M157.73 151.31c0 39.9 10.03 49.8 50.16 49.8 40.14 0 50.17-9.9 50.17-49.8 0-39.89-10.03-49.8-50.17-49.8-40.13 0-50.16 9.91-50.16 49.8zm50.16-28.74c20.69 0 22.92 2.85 22.92 28.74 0 25.9-2.23 28.74-22.92 28.74-20.68 0-22.91-2.85-22.91-28.74 0-25.89 2.23-28.74 22.9-28.74z"/></g></g><g style="display:inherit"><g style="display:block"><path d="M265.98 199.62h49.92c35.31 0 44.1-9.66 44.1-48.3 0-38.66-8.79-48.32-44.1-48.32h-49.92v96.62zM292 125.3h21.18c17.59 0 19.57 2.6 19.57 26.01s-1.98 26.01-19.57 26.01H292l-.13-26 .13-26.02z"/></g></g><g style="display:inherit"><g style="display:block"><path d="M367.95 103v96.62h79.53v-22.3h-53.51v-16.1h48.3v-21.06h-48.3V125.3h53.26V103h-79.28z"/></g></g><g style="display:inherit"><g style="display:block"><path d="M482.77 145.74v-21.68h22.54c11.65 0 12.88 1.11 12.88 10.65 0 9.91-1.23 11.03-12.88 11.03h-22.54zM512 103h-55.25v96.62h26.02v-34.06h19.32c13.5 0 14.86 1.11 14.86 11.76v22.3h27.26v-23.78c0-12.39-6.57-18.09-19.45-19.45 13.5-1.86 19.45-9.42 19.45-25.39 0-22.42-6.45-28-32.2-28z"/></g></g><g style="display:inherit"><g style="display:block"><path d="M553.43 199.62h26.02v-52.65h.74l42.86 52.65h24.52V103h-26.01v52.77h-.74L578.08 103h-24.65v96.62z"/></g></g><g style="display:inherit"><g style="display:block"><path d="M691.18 151.31c0 39.9 10.03 49.8 50.16 49.8 40.14 0 50.17-9.9 50.17-49.8 0-39.89-10.03-49.8-50.17-49.8-40.13 0-50.16 9.91-50.16 49.8zm50.16-28.74c20.69 0 22.92 2.85 22.92 28.74 0 25.9-2.23 28.74-22.92 28.74-20.68 0-22.91-2.85-22.91-28.74 0-25.89 2.23-28.74 22.91-28.74z"/></g></g><g style="display:inherit"><g style="display:block"><path d="M883.91 159.98V103H857.9v56.98c0 18.1-1.73 20.07-16.85 20.07-15.11 0-16.84-1.98-16.84-20.07V103h-26.02v56.98c0 32.95 8.55 41.13 42.86 41.13 34.32 0 42.86-8.18 42.86-41.13z"/></g></g><g style="display:inherit"><g style="display:block"><path d="M917.19 199.62h26.02V125.3h29.85V103h-85.47v22.3h29.6v74.32z"/></g></g></g></g></g></svg>