<svg xmlns="http://www.w3.org/2000/svg" viewBox="0 0 1920 1080" width="528" height="297" style="width:100%;height:100%;transform:translate3d(0,0,0);content-visibility:visible;background-color:transparent"><defs><clipPath id="a"><path d="M0 0h1920v1080H0z"/></clipPath><clipPath id="ab"><path d="M0 0h1000v300H0z"/></clipPath><clipPath id="B"><path d="M0 0h1920v1080H0z"/></clipPath><clipPath id="aa"><path d="M0 0h1000v300H0z"/></clipPath><clipPath id="Z"><path d="M0 0h1000v300H0z"/></clipPath><clipPath id="Y"><path d="M0 0h1000v300H0z"/></clipPath><clipPath id="X"><path d="M0 0h1000v300H0z"/></clipPath><clipPath id="W"><path d="M0 0h1000v300H0z"/></clipPath><clipPath id="V"><path d="M0 0h1000v300H0z"/></clipPath><clipPath id="U"><path d="M0 0h1000v300H0z"/></clipPath><clipPath id="T"><path d="M0 0h1000v300H0z"/></clipPath><clipPath id="S"><path d="M0 0h1000v300H0z"/></clipPath><clipPath id="R"><path d="M0 0h1000v300H0z"/></clipPath><clipPath id="Q"><path d="M0 0h1000v300H0z"/></clipPath><clipPath id="P"><path d="M0 0h1000v300H0z"/></clipPath><clipPath id="O"><path d="M0 0h1000v300H0z"/></clipPath><clipPath id="N"><path d="M0 0h1000v300H0z"/></clipPath><clipPath id="M"><path d="M0 0h1000v300H0z"/></clipPath><clipPath id="L"><path d="M0 0h1000v300H0z"/></clipPath><clipPath id="K"><path d="M0 0h1000v300H0z"/></clipPath><clipPath id="J"><path d="M0 0h1000v300H0z"/></clipPath><clipPath id="I"><path d="M0 0h1000v300H0z"/></clipPath><clipPath id="H"><path d="M0 0h1000v300H0z"/></clipPath><clipPath id="G"><path d="M0 0h1000v300H0z"/></clipPath><clipPath id="F"><path d="M0 0h1000v300H0z"/></clipPath><clipPath id="E"><path d="M0 0h1000v300H0z"/></clipPath><clipPath id="D"><path d="M0 0h1000v300H0z"/></clipPath><clipPath id="C"><path d="M0 0h1000v300H0z"/></clipPath><clipPath id="b"><path d="M0 0h1920v1080H0z"/></clipPath><clipPath id="A"><path d="M0 0h1000v300H0z"/></clipPath><clipPath id="z"><path d="M0 0h1000v300H0z"/></clipPath><clipPath id="y"><path d="M0 0h1000v300H0z"/></clipPath><clipPath id="x"><path d="M0 0h1000v300H0z"/></clipPath><clipPath id="w"><path d="M0 0h1000v300H0z"/></clipPath><clipPath id="v"><path d="M0 0h1000v300H0z"/></clipPath><clipPath id="u"><path d="M0 0h1000v300H0z"/></clipPath><clipPath id="t"><path d="M0 0h1000v300H0z"/></clipPath><clipPath id="s"><path d="M0 0h1000v300H0z"/></clipPath><clipPath id="r"><path d="M0 0h1000v300H0z"/></clipPath><clipPath id="q"><path d="M0 0h1000v300H0z"/></clipPath><clipPath id="p"><path d="M0 0h1000v300H0z"/></clipPath><clipPath id="o"><path d="M0 0h1000v300H0z"/></clipPath><clipPath id="n"><path d="M0 0h1000v300H0z"/></clipPath><clipPath id="m"><path d="M0 0h1000v300H0z"/></clipPath><clipPath id="l"><path d="M0 0h1000v300H0z"/></clipPath><clipPath id="k"><path d="M0 0h1000v300H0z"/></clipPath><clipPath id="j"><path d="M0 0h1000v300H0z"/></clipPath><clipPath id="i"><path d="M0 0h1000v300H0z"/></clipPath><clipPath id="h"><path d="M0 0h1000v300H0z"/></clipPath><clipPath id="g"><path d="M0 0h1000v300H0z"/></clipPath><clipPath id="f"><path d="M0 0h1000v300H0z"/></clipPath><clipPath id="e"><path d="M0 0h1000v300H0z"/></clipPath><clipPath id="d"><path d="M0 0h1000v300H0z"/></clipPath><clipPath id="c"><path d="M0 0h1000v300H0z"/></clipPath></defs><g clip-path="url(#a)"><g clip-path="url(#b)" style="display:block"><g clip-path="url(#c)" style="display:block" transform="matrix(.42 0 0 .42 750 477)"><path fill="#FFF" d="M14.75-93V93h-29.5V-93h29.5z" transform="translate(500 150)" style="display:block"/></g><g clip-path="url(#d)" style="display:block" transform="matrix(.42 0 0 .42 750 239)"><path fill="#FFF" d="M14.75-93V93h-29.5V-93h29.5z" transform="translate(500 150)" style="display:block"/></g><g clip-path="url(#e)" style="display:block" transform="matrix(.42 0 0 .42 750 952)"><path fill="#FFF" d="M14.75-93V93h-29.5V-93h29.5z" transform="translate(500 150)" style="display:block"/></g><g clip-path="url(#f)" style="display:block" transform="matrix(.42 0 0 .42 750 1)"><path fill="#FFF" d="M14.75-93V93h-29.5V-93h29.5z" transform="translate(500 150)" style="display:block"/></g><g clip-path="url(#g)" style="display:block" transform="matrix(.42 0 0 .42 750 714)"><path fill="#FFF" d="M14.75-93V93h-29.5V-93h29.5z" transform="translate(500 150)" style="display:block"/></g><g clip-path="url(#h)" style="display:block" transform="matrix(.42 0 0 .42 1172 477)"><path fill="#FFF" d="M14.75-93V93h-29.5V-93h29.5z" transform="translate(500 150)" style="display:block"/></g><g clip-path="url(#i)" style="display:block" transform="matrix(.42 0 0 .42 1172 239)"><path fill="#FFF" d="M14.75-93V93h-29.5V-93h29.5z" transform="translate(500 150)" style="display:block"/></g><g clip-path="url(#j)" style="display:block" transform="matrix(.42 0 0 .42 1172 952)"><path fill="#FFF" d="M14.75-93V93h-29.5V-93h29.5z" transform="translate(500 150)" style="display:block"/></g><g clip-path="url(#k)" style="display:block" transform="matrix(.42 0 0 .42 1172 1)"><path fill="#FFF" d="M14.75-93V93h-29.5V-93h29.5z" transform="translate(500 150)" style="display:block"/></g><g clip-path="url(#l)" style="display:block" transform="matrix(.42 0 0 .42 1172 714)"><path fill="#FFF" d="M14.75-93V93h-29.5V-93h29.5z" transform="translate(500 150)" style="display:block"/></g><g clip-path="url(#m)" style="display:block" transform="matrix(.42 0 0 .42 1594 477)"><path fill="#FFF" d="M14.75-93V93h-29.5V-93h29.5z" transform="translate(500 150)" style="display:block"/></g><g clip-path="url(#n)" style="display:block" transform="matrix(.42 0 0 .42 1594 239)"><path fill="#FFF" d="M14.75-93V93h-29.5V-93h29.5z" transform="translate(500 150)" style="display:block"/></g><g clip-path="url(#o)" style="display:block" transform="matrix(.42 0 0 .42 1594 952)"><path fill="#FFF" d="M14.75-93V93h-29.5V-93h29.5z" transform="translate(500 150)" style="display:block"/></g><g clip-path="url(#p)" style="display:block" transform="matrix(.42 0 0 .42 1594 1)"><path fill="#FFF" d="M14.75-93V93h-29.5V-93h29.5z" transform="translate(500 150)" style="display:block"/></g><g clip-path="url(#q)" style="display:block" transform="matrix(.42 0 0 .42 1594 714)"><path fill="#FFF" d="M14.75-93V93h-29.5V-93h29.5z" transform="translate(500 150)" style="display:block"/></g><g clip-path="url(#r)" style="display:block" transform="matrix(.42 0 0 .42 -94 477)"><path fill="#FFF" d="M14.75-93V93h-29.5V-93h29.5z" transform="translate(500 150)" style="display:block"/></g><g clip-path="url(#s)" style="display:block" transform="matrix(.42 0 0 .42 -94 239)"><path fill="#FFF" d="M14.75-93V93h-29.5V-93h29.5z" transform="translate(500 150)" style="display:block"/></g><g clip-path="url(#t)" style="display:block" transform="matrix(.42 0 0 .42 -94 952)"><path fill="#FFF" d="M14.75-93V93h-29.5V-93h29.5z" transform="translate(500 150)" style="display:block"/></g><g clip-path="url(#u)" style="display:block" transform="matrix(.42 0 0 .42 -94 1)"><path fill="#FFF" d="M14.75-93V93h-29.5V-93h29.5z" transform="translate(500 150)" style="display:block"/></g><g clip-path="url(#v)" style="display:block" transform="matrix(.42 0 0 .42 -94 714)"><path fill="#FFF" d="M14.75-93V93h-29.5V-93h29.5z" transform="translate(500 150)" style="display:block"/></g><g clip-path="url(#w)" style="display:block" transform="matrix(.42 0 0 .42 328 477)"><path fill="#FFF" d="M14.75-93V93h-29.5V-93h29.5z" transform="translate(500 150)" style="display:block"/></g><g clip-path="url(#x)" style="display:block" transform="matrix(.42 0 0 .42 328 239)"><path fill="#FFF" d="M14.75-93V93h-29.5V-93h29.5z" transform="translate(500 150)" style="display:block"/></g><g clip-path="url(#y)" style="display:block" transform="matrix(.42 0 0 .42 328 952)"><path fill="#FFF" d="M14.75-93V93h-29.5V-93h29.5z" transform="translate(500 150)" style="display:block"/></g><g clip-path="url(#z)" style="display:block" transform="matrix(.42 0 0 .42 328 1)"><path fill="#FFF" d="M14.75-93V93h-29.5V-93h29.5z" transform="translate(500 150)" style="display:block"/></g><g clip-path="url(#A)" style="display:block" transform="matrix(.42 0 0 .42 328 714)"><path fill="#FFF" d="M14.75-93V93h-29.5V-93h29.5z" transform="translate(500 150)" style="display:block"/></g></g></g></svg>