<svg xmlns="http://www.w3.org/2000/svg" viewBox="0 0 1920 1080" width="528" height="297" style="width:100%;height:100%;transform:translate3d(0,0,0);content-visibility:visible;background-color:transparent"><defs><clipPath id="a"><path d="M0 0h1920v1080H0z"/></clipPath><clipPath id="ab"><path d="M0 0h1000v300H0z"/></clipPath><clipPath id="B"><path d="M0 0h1920v1080H0z"/></clipPath><clipPath id="aa"><path d="M0 0h1000v300H0z"/></clipPath><clipPath id="Z"><path d="M0 0h1000v300H0z"/></clipPath><clipPath id="Y"><path d="M0 0h1000v300H0z"/></clipPath><clipPath id="X"><path d="M0 0h1000v300H0z"/></clipPath><clipPath id="W"><path d="M0 0h1000v300H0z"/></clipPath><clipPath id="V"><path d="M0 0h1000v300H0z"/></clipPath><clipPath id="U"><path d="M0 0h1000v300H0z"/></clipPath><clipPath id="T"><path d="M0 0h1000v300H0z"/></clipPath><clipPath id="S"><path d="M0 0h1000v300H0z"/></clipPath><clipPath id="R"><path d="M0 0h1000v300H0z"/></clipPath><clipPath id="Q"><path d="M0 0h1000v300H0z"/></clipPath><clipPath id="P"><path d="M0 0h1000v300H0z"/></clipPath><clipPath id="O"><path d="M0 0h1000v300H0z"/></clipPath><clipPath id="N"><path d="M0 0h1000v300H0z"/></clipPath><clipPath id="M"><path d="M0 0h1000v300H0z"/></clipPath><clipPath id="L"><path d="M0 0h1000v300H0z"/></clipPath><clipPath id="K"><path d="M0 0h1000v300H0z"/></clipPath><clipPath id="J"><path d="M0 0h1000v300H0z"/></clipPath><clipPath id="I"><path d="M0 0h1000v300H0z"/></clipPath><clipPath id="H"><path d="M0 0h1000v300H0z"/></clipPath><clipPath id="G"><path d="M0 0h1000v300H0z"/></clipPath><clipPath id="F"><path d="M0 0h1000v300H0z"/></clipPath><clipPath id="E"><path d="M0 0h1000v300H0z"/></clipPath><clipPath id="D"><path d="M0 0h1000v300H0z"/></clipPath><clipPath id="C"><path d="M0 0h1000v300H0z"/></clipPath><clipPath id="b"><path d="M0 0h1920v1080H0z"/></clipPath><clipPath id="A"><path d="M0 0h1000v300H0z"/></clipPath><clipPath id="z"><path d="M0 0h1000v300H0z"/></clipPath><clipPath id="y"><path d="M0 0h1000v300H0z"/></clipPath><clipPath id="x"><path d="M0 0h1000v300H0z"/></clipPath><clipPath id="w"><path d="M0 0h1000v300H0z"/></clipPath><clipPath id="v"><path d="M0 0h1000v300H0z"/></clipPath><clipPath id="u"><path d="M0 0h1000v300H0z"/></clipPath><clipPath id="t"><path d="M0 0h1000v300H0z"/></clipPath><clipPath id="s"><path d="M0 0h1000v300H0z"/></clipPath><clipPath id="r"><path d="M0 0h1000v300H0z"/></clipPath><clipPath id="q"><path d="M0 0h1000v300H0z"/></clipPath><clipPath id="p"><path d="M0 0h1000v300H0z"/></clipPath><clipPath id="o"><path d="M0 0h1000v300H0z"/></clipPath><clipPath id="n"><path d="M0 0h1000v300H0z"/></clipPath><clipPath id="m"><path d="M0 0h1000v300H0z"/></clipPath><clipPath id="l"><path d="M0 0h1000v300H0z"/></clipPath><clipPath id="k"><path d="M0 0h1000v300H0z"/></clipPath><clipPath id="j"><path d="M0 0h1000v300H0z"/></clipPath><clipPath id="i"><path d="M0 0h1000v300H0z"/></clipPath><clipPath id="h"><path d="M0 0h1000v300H0z"/></clipPath><clipPath id="g"><path d="M0 0h1000v300H0z"/></clipPath><clipPath id="f"><path d="M0 0h1000v300H0z"/></clipPath><clipPath id="e"><path d="M0 0h1000v300H0z"/></clipPath><clipPath id="d"><path d="M0 0h1000v300H0z"/></clipPath><clipPath id="c"><path d="M0 0h1000v300H0z"/></clipPath></defs><g clip-path="url(#a)"><g clip-path="url(#ab)" style="display:block" transform="matrix(1.85 0 0 1.85 35 262.5)"><g style="display:block" fill="#FFF" stroke="#000" stroke-width=".01" font-size="123" font-family="Basement Grotesque" font-weight="900" aria-label="OF HOME" stroke-linejoin="round"><g style="display:inherit"><g style="display:block"><path d="M174.75 150c0 39.89 10.03 49.8 50.16 49.8 40.14 0 50.17-9.91 50.17-49.8s-10.03-49.8-50.17-49.8c-40.13 0-50.16 9.91-50.16 49.8zm50.16-28.74c20.69 0 22.92 2.85 22.92 28.74 0 25.89-2.23 28.74-22.92 28.74-20.68 0-22.91-2.85-22.91-28.74 0-25.89 2.23-28.74 22.9-28.74z"/></g></g><g style="display:inherit"><g style="display:block"><path d="M283 101.69v96.62h26.02v-34.68h48.3v-22.3h-48.3v-17.34h53.26v-22.3H283z"/></g></g><g style="display:inherit"><g style="display:block"><path d="M407.23 198.31h26.02v-38.15h37.16v38.15h26v-96.62h-26v36.17h-37.16v-36.17h-26.02v96.62z"/></g></g><g style="display:inherit"><g style="display:block"><path d="M504.39 150c0 39.89 10.03 49.8 50.16 49.8 40.14 0 50.17-9.91 50.17-49.8s-10.03-49.8-50.17-49.8c-40.13 0-50.16 9.91-50.16 49.8zm50.16-28.74c20.69 0 22.92 2.85 22.92 28.74 0 25.89-2.23 28.74-22.92 28.74-20.68 0-22.91-2.85-22.91-28.74 0-25.89 2.23-28.74 22.9-28.74z"/></g></g><g style="display:inherit"><g style="display:block"><path d="M638.66 198.31v-71.85h.74l14.49 71.85h40.26l14.62-71.85h.74v71.85h26v-96.62h-45.7l-14.61 71.85h-1l-14.5-71.85h-47.06v96.62h26.02z"/></g></g><g style="display:inherit"><g style="display:block"><path d="M745.72 101.69v96.62h79.53v-22.3h-53.5v-16.1h48.3v-21.06h-48.3v-14.86H825v-22.3h-79.28z"/></g></g></g></g></g></svg>