<svg xmlns="http://www.w3.org/2000/svg" viewBox="0 0 1920 1080" width="528" height="297" style="width:100%;height:100%;transform:translate3d(0,0,0);content-visibility:visible;background-color:transparent"><defs><clipPath id="a"><path d="M0 0h1920v1080H0z"/></clipPath><clipPath id="ab"><path d="M0 0h1000v300H0z"/></clipPath><clipPath id="B"><path d="M0 0h1920v1080H0z"/></clipPath><clipPath id="aa"><path d="M0 0h1000v300H0z"/></clipPath><clipPath id="Z"><path d="M0 0h1000v300H0z"/></clipPath><clipPath id="Y"><path d="M0 0h1000v300H0z"/></clipPath><clipPath id="X"><path d="M0 0h1000v300H0z"/></clipPath><clipPath id="W"><path d="M0 0h1000v300H0z"/></clipPath><clipPath id="V"><path d="M0 0h1000v300H0z"/></clipPath><clipPath id="U"><path d="M0 0h1000v300H0z"/></clipPath><clipPath id="T"><path d="M0 0h1000v300H0z"/></clipPath><clipPath id="S"><path d="M0 0h1000v300H0z"/></clipPath><clipPath id="R"><path d="M0 0h1000v300H0z"/></clipPath><clipPath id="Q"><path d="M0 0h1000v300H0z"/></clipPath><clipPath id="P"><path d="M0 0h1000v300H0z"/></clipPath><clipPath id="O"><path d="M0 0h1000v300H0z"/></clipPath><clipPath id="N"><path d="M0 0h1000v300H0z"/></clipPath><clipPath id="M"><path d="M0 0h1000v300H0z"/></clipPath><clipPath id="L"><path d="M0 0h1000v300H0z"/></clipPath><clipPath id="K"><path d="M0 0h1000v300H0z"/></clipPath><clipPath id="J"><path d="M0 0h1000v300H0z"/></clipPath><clipPath id="I"><path d="M0 0h1000v300H0z"/></clipPath><clipPath id="H"><path d="M0 0h1000v300H0z"/></clipPath><clipPath id="G"><path d="M0 0h1000v300H0z"/></clipPath><clipPath id="F"><path d="M0 0h1000v300H0z"/></clipPath><clipPath id="E"><path d="M0 0h1000v300H0z"/></clipPath><clipPath id="D"><path d="M0 0h1000v300H0z"/></clipPath><clipPath id="C"><path d="M0 0h1000v300H0z"/></clipPath><clipPath id="b"><path d="M0 0h1920v1080H0z"/></clipPath><clipPath id="A"><path d="M0 0h1000v300H0z"/></clipPath><clipPath id="z"><path d="M0 0h1000v300H0z"/></clipPath><clipPath id="y"><path d="M0 0h1000v300H0z"/></clipPath><clipPath id="x"><path d="M0 0h1000v300H0z"/></clipPath><clipPath id="w"><path d="M0 0h1000v300H0z"/></clipPath><clipPath id="v"><path d="M0 0h1000v300H0z"/></clipPath><clipPath id="u"><path d="M0 0h1000v300H0z"/></clipPath><clipPath id="t"><path d="M0 0h1000v300H0z"/></clipPath><clipPath id="s"><path d="M0 0h1000v300H0z"/></clipPath><clipPath id="r"><path d="M0 0h1000v300H0z"/></clipPath><clipPath id="q"><path d="M0 0h1000v300H0z"/></clipPath><clipPath id="p"><path d="M0 0h1000v300H0z"/></clipPath><clipPath id="o"><path d="M0 0h1000v300H0z"/></clipPath><clipPath id="n"><path d="M0 0h1000v300H0z"/></clipPath><clipPath id="m"><path d="M0 0h1000v300H0z"/></clipPath><clipPath id="l"><path d="M0 0h1000v300H0z"/></clipPath><clipPath id="k"><path d="M0 0h1000v300H0z"/></clipPath><clipPath id="j"><path d="M0 0h1000v300H0z"/></clipPath><clipPath id="i"><path d="M0 0h1000v300H0z"/></clipPath><clipPath id="h"><path d="M0 0h1000v300H0z"/></clipPath><clipPath id="g"><path d="M0 0h1000v300H0z"/></clipPath><clipPath id="f"><path d="M0 0h1000v300H0z"/></clipPath><clipPath id="e"><path d="M0 0h1000v300H0z"/></clipPath><clipPath id="d"><path d="M0 0h1000v300H0z"/></clipPath><clipPath id="c"><path d="M0 0h1000v300H0z"/></clipPath></defs><g clip-path="url(#a)"><g clip-path="url(#b)" style="display:block"><g clip-path="url(#c)" style="display:block" transform="matrix(.42 0 0 .42 750 477)"><g style="display:block" fill="#FFF" stroke="#000" stroke-width=".01" font-size="153" font-family="Basement Grotesque" font-weight="900" aria-label="MOOH" stroke-linejoin="round"><g style="display:inherit"><g style="display:block"><path d="M259.97 204v-89.37h.93L278.92 204H329l18.18-89.37h.93V204h32.36V83.82h-56.86l-18.18 89.36h-1.24l-18.02-89.36h-58.56V204h32.36z"/></g></g><g style="display:inherit"><g style="display:block"><path d="M390.08 143.9c0 49.62 12.48 61.95 62.4 61.95 49.93 0 62.4-12.33 62.4-61.94 0-49.62-12.47-61.94-62.4-61.94-49.92 0-62.4 12.32-62.4 61.94zm62.4-35.74c25.74 0 28.5 3.54 28.5 35.75 0 32.2-2.76 35.74-28.5 35.74-25.73 0-28.5-3.54-28.5-35.74 0-32.21 2.77-35.75 28.5-35.75z"/></g></g><g style="display:inherit"><g style="display:block"><path d="M521.66 143.9c0 49.62 12.48 61.95 62.4 61.95 49.93 0 62.4-12.33 62.4-61.94 0-49.62-12.47-61.94-62.4-61.94-49.92 0-62.4 12.32-62.4 61.94zm62.4-35.74c25.74 0 28.5 3.54 28.5 35.75 0 32.2-2.76 35.74-28.5 35.74-25.73 0-28.5-3.54-28.5-35.74 0-32.21 2.77-35.75 28.5-35.75z"/></g></g><g style="display:inherit"><g style="display:block"><path d="M656.32 204h32.36v-47.46h46.23V204h32.35V83.82H734.9v44.99h-46.23v-45h-32.36V204z"/></g></g></g></g><g clip-path="url(#d)" style="display:block" transform="matrix(.42 0 0 .42 750 239)"><g style="display:block" fill="#FFF" stroke="#000" stroke-width=".01" font-size="153" font-family="Basement Grotesque" font-weight="900" aria-label="MOOH" stroke-linejoin="round"><g style="display:inherit"><g style="display:block"><path d="M259.97 204v-89.37h.93L278.92 204H329l18.18-89.37h.93V204h32.36V83.82h-56.86l-18.18 89.36h-1.24l-18.02-89.36h-58.56V204h32.36z"/></g></g><g style="display:inherit"><g style="display:block"><path d="M390.08 143.9c0 49.62 12.48 61.95 62.4 61.95 49.93 0 62.4-12.33 62.4-61.94 0-49.62-12.47-61.94-62.4-61.94-49.92 0-62.4 12.32-62.4 61.94zm62.4-35.74c25.74 0 28.5 3.54 28.5 35.75 0 32.2-2.76 35.74-28.5 35.74-25.73 0-28.5-3.54-28.5-35.74 0-32.21 2.77-35.75 28.5-35.75z"/></g></g><g style="display:inherit"><g style="display:block"><path d="M521.66 143.9c0 49.62 12.48 61.95 62.4 61.95 49.93 0 62.4-12.33 62.4-61.94 0-49.62-12.47-61.94-62.4-61.94-49.92 0-62.4 12.32-62.4 61.94zm62.4-35.74c25.74 0 28.5 3.54 28.5 35.75 0 32.2-2.76 35.74-28.5 35.74-25.73 0-28.5-3.54-28.5-35.74 0-32.21 2.77-35.75 28.5-35.75z"/></g></g><g style="display:inherit"><g style="display:block"><path d="M656.32 204h32.36v-47.46h46.23V204h32.35V83.82H734.9v44.99h-46.23v-45h-32.36V204z"/></g></g></g></g><g clip-path="url(#e)" style="display:block" transform="matrix(.42 0 0 .42 750 952)"><g style="display:block" fill="#FFF" stroke="#000" stroke-width=".01" font-size="153" font-family="Basement Grotesque" font-weight="900" aria-label="MOOH" stroke-linejoin="round"><g style="display:inherit"><g style="display:block"><path d="M259.97 204v-89.37h.93L278.92 204H329l18.18-89.37h.93V204h32.36V83.82h-56.86l-18.18 89.36h-1.24l-18.02-89.36h-58.56V204h32.36z"/></g></g><g style="display:inherit"><g style="display:block"><path d="M390.08 143.9c0 49.62 12.48 61.95 62.4 61.95 49.93 0 62.4-12.33 62.4-61.94 0-49.62-12.47-61.94-62.4-61.94-49.92 0-62.4 12.32-62.4 61.94zm62.4-35.74c25.74 0 28.5 3.54 28.5 35.75 0 32.2-2.76 35.74-28.5 35.74-25.73 0-28.5-3.54-28.5-35.74 0-32.21 2.77-35.75 28.5-35.75z"/></g></g><g style="display:inherit"><g style="display:block"><path d="M521.66 143.9c0 49.62 12.48 61.95 62.4 61.95 49.93 0 62.4-12.33 62.4-61.94 0-49.62-12.47-61.94-62.4-61.94-49.92 0-62.4 12.32-62.4 61.94zm62.4-35.74c25.74 0 28.5 3.54 28.5 35.75 0 32.2-2.76 35.74-28.5 35.74-25.73 0-28.5-3.54-28.5-35.74 0-32.21 2.77-35.75 28.5-35.75z"/></g></g><g style="display:inherit"><g style="display:block"><path d="M656.32 204h32.36v-47.46h46.23V204h32.35V83.82H734.9v44.99h-46.23v-45h-32.36V204z"/></g></g></g></g><g clip-path="url(#f)" style="display:block" transform="matrix(.42 0 0 .42 750 1)"><g style="display:block" fill="#FFF" stroke="#000" stroke-width=".01" font-size="153" font-family="Basement Grotesque" font-weight="900" aria-label="MOOH" stroke-linejoin="round"><g style="display:inherit"><g style="display:block"><path d="M259.97 204v-89.37h.93L278.92 204H329l18.18-89.37h.93V204h32.36V83.82h-56.86l-18.18 89.36h-1.24l-18.02-89.36h-58.56V204h32.36z"/></g></g><g style="display:inherit"><g style="display:block"><path d="M390.08 143.9c0 49.62 12.48 61.95 62.4 61.95 49.93 0 62.4-12.33 62.4-61.94 0-49.62-12.47-61.94-62.4-61.94-49.92 0-62.4 12.32-62.4 61.94zm62.4-35.74c25.74 0 28.5 3.54 28.5 35.75 0 32.2-2.76 35.74-28.5 35.74-25.73 0-28.5-3.54-28.5-35.74 0-32.21 2.77-35.75 28.5-35.75z"/></g></g><g style="display:inherit"><g style="display:block"><path d="M521.66 143.9c0 49.62 12.48 61.95 62.4 61.95 49.93 0 62.4-12.33 62.4-61.94 0-49.62-12.47-61.94-62.4-61.94-49.92 0-62.4 12.32-62.4 61.94zm62.4-35.74c25.74 0 28.5 3.54 28.5 35.75 0 32.2-2.76 35.74-28.5 35.74-25.73 0-28.5-3.54-28.5-35.74 0-32.21 2.77-35.75 28.5-35.75z"/></g></g><g style="display:inherit"><g style="display:block"><path d="M656.32 204h32.36v-47.46h46.23V204h32.35V83.82H734.9v44.99h-46.23v-45h-32.36V204z"/></g></g></g></g><g clip-path="url(#g)" style="display:block" transform="matrix(.42 0 0 .42 750 714)"><g style="display:block" fill="#FFF" stroke="#000" stroke-width=".01" font-size="153" font-family="Basement Grotesque" font-weight="900" aria-label="MOOH" stroke-linejoin="round"><g style="display:inherit"><g style="display:block"><path d="M259.97 204v-89.37h.93L278.92 204H329l18.18-89.37h.93V204h32.36V83.82h-56.86l-18.18 89.36h-1.24l-18.02-89.36h-58.56V204h32.36z"/></g></g><g style="display:inherit"><g style="display:block"><path d="M390.08 143.9c0 49.62 12.48 61.95 62.4 61.95 49.93 0 62.4-12.33 62.4-61.94 0-49.62-12.47-61.94-62.4-61.94-49.92 0-62.4 12.32-62.4 61.94zm62.4-35.74c25.74 0 28.5 3.54 28.5 35.75 0 32.2-2.76 35.74-28.5 35.74-25.73 0-28.5-3.54-28.5-35.74 0-32.21 2.77-35.75 28.5-35.75z"/></g></g><g style="display:inherit"><g style="display:block"><path d="M521.66 143.9c0 49.62 12.48 61.95 62.4 61.95 49.93 0 62.4-12.33 62.4-61.94 0-49.62-12.47-61.94-62.4-61.94-49.92 0-62.4 12.32-62.4 61.94zm62.4-35.74c25.74 0 28.5 3.54 28.5 35.75 0 32.2-2.76 35.74-28.5 35.74-25.73 0-28.5-3.54-28.5-35.74 0-32.21 2.77-35.75 28.5-35.75z"/></g></g><g style="display:inherit"><g style="display:block"><path d="M656.32 204h32.36v-47.46h46.23V204h32.35V83.82H734.9v44.99h-46.23v-45h-32.36V204z"/></g></g></g></g><g clip-path="url(#h)" style="display:block" transform="matrix(.42 0 0 .42 1172 477)"><g style="display:block" fill="#FFF" stroke="#000" stroke-width=".01" font-size="153" font-family="Basement Grotesque" font-weight="900" aria-label="MOOH" stroke-linejoin="round"><g style="display:inherit"><g style="display:block"><path d="M259.97 204v-89.37h.93L278.92 204H329l18.18-89.37h.93V204h32.36V83.82h-56.86l-18.18 89.36h-1.24l-18.02-89.36h-58.56V204h32.36z"/></g></g><g style="display:inherit"><g style="display:block"><path d="M390.08 143.9c0 49.62 12.48 61.95 62.4 61.95 49.93 0 62.4-12.33 62.4-61.94 0-49.62-12.47-61.94-62.4-61.94-49.92 0-62.4 12.32-62.4 61.94zm62.4-35.74c25.74 0 28.5 3.54 28.5 35.75 0 32.2-2.76 35.74-28.5 35.74-25.73 0-28.5-3.54-28.5-35.74 0-32.21 2.77-35.75 28.5-35.75z"/></g></g><g style="display:inherit"><g style="display:block"><path d="M521.66 143.9c0 49.62 12.48 61.95 62.4 61.95 49.93 0 62.4-12.33 62.4-61.94 0-49.62-12.47-61.94-62.4-61.94-49.92 0-62.4 12.32-62.4 61.94zm62.4-35.74c25.74 0 28.5 3.54 28.5 35.75 0 32.2-2.76 35.74-28.5 35.74-25.73 0-28.5-3.54-28.5-35.74 0-32.21 2.77-35.75 28.5-35.75z"/></g></g><g style="display:inherit"><g style="display:block"><path d="M656.32 204h32.36v-47.46h46.23V204h32.35V83.82H734.9v44.99h-46.23v-45h-32.36V204z"/></g></g></g></g><g clip-path="url(#i)" style="display:block" transform="matrix(.42 0 0 .42 1172 239)"><g style="display:block" fill="#FFF" stroke="#000" stroke-width=".01" font-size="153" font-family="Basement Grotesque" font-weight="900" aria-label="MOOH" stroke-linejoin="round"><g style="display:inherit"><g style="display:block"><path d="M259.97 204v-89.37h.93L278.92 204H329l18.18-89.37h.93V204h32.36V83.82h-56.86l-18.18 89.36h-1.24l-18.02-89.36h-58.56V204h32.36z"/></g></g><g style="display:inherit"><g style="display:block"><path d="M390.08 143.9c0 49.62 12.48 61.95 62.4 61.95 49.93 0 62.4-12.33 62.4-61.94 0-49.62-12.47-61.94-62.4-61.94-49.92 0-62.4 12.32-62.4 61.94zm62.4-35.74c25.74 0 28.5 3.54 28.5 35.75 0 32.2-2.76 35.74-28.5 35.74-25.73 0-28.5-3.54-28.5-35.74 0-32.21 2.77-35.75 28.5-35.75z"/></g></g><g style="display:inherit"><g style="display:block"><path d="M521.66 143.9c0 49.62 12.48 61.95 62.4 61.95 49.93 0 62.4-12.33 62.4-61.94 0-49.62-12.47-61.94-62.4-61.94-49.92 0-62.4 12.32-62.4 61.94zm62.4-35.74c25.74 0 28.5 3.54 28.5 35.75 0 32.2-2.76 35.74-28.5 35.74-25.73 0-28.5-3.54-28.5-35.74 0-32.21 2.77-35.75 28.5-35.75z"/></g></g><g style="display:inherit"><g style="display:block"><path d="M656.32 204h32.36v-47.46h46.23V204h32.35V83.82H734.9v44.99h-46.23v-45h-32.36V204z"/></g></g></g></g><g clip-path="url(#j)" style="display:block" transform="matrix(.42 0 0 .42 1172 952)"><g style="display:block" fill="#FFF" stroke="#000" stroke-width=".01" font-size="153" font-family="Basement Grotesque" font-weight="900" aria-label="MOOH" stroke-linejoin="round"><g style="display:inherit"><g style="display:block"><path d="M259.97 204v-89.37h.93L278.92 204H329l18.18-89.37h.93V204h32.36V83.82h-56.86l-18.18 89.36h-1.24l-18.02-89.36h-58.56V204h32.36z"/></g></g><g style="display:inherit"><g style="display:block"><path d="M390.08 143.9c0 49.62 12.48 61.95 62.4 61.95 49.93 0 62.4-12.33 62.4-61.94 0-49.62-12.47-61.94-62.4-61.94-49.92 0-62.4 12.32-62.4 61.94zm62.4-35.74c25.74 0 28.5 3.54 28.5 35.75 0 32.2-2.76 35.74-28.5 35.74-25.73 0-28.5-3.54-28.5-35.74 0-32.21 2.77-35.75 28.5-35.75z"/></g></g><g style="display:inherit"><g style="display:block"><path d="M521.66 143.9c0 49.62 12.48 61.95 62.4 61.95 49.93 0 62.4-12.33 62.4-61.94 0-49.62-12.47-61.94-62.4-61.94-49.92 0-62.4 12.32-62.4 61.94zm62.4-35.74c25.74 0 28.5 3.54 28.5 35.75 0 32.2-2.76 35.74-28.5 35.74-25.73 0-28.5-3.54-28.5-35.74 0-32.21 2.77-35.75 28.5-35.75z"/></g></g><g style="display:inherit"><g style="display:block"><path d="M656.32 204h32.36v-47.46h46.23V204h32.35V83.82H734.9v44.99h-46.23v-45h-32.36V204z"/></g></g></g></g><g clip-path="url(#k)" style="display:block" transform="matrix(.42 0 0 .42 1172 1)"><g style="display:block" fill="#FFF" stroke="#000" stroke-width=".01" font-size="153" font-family="Basement Grotesque" font-weight="900" aria-label="MOOH" stroke-linejoin="round"><g style="display:inherit"><g style="display:block"><path d="M259.97 204v-89.37h.93L278.92 204H329l18.18-89.37h.93V204h32.36V83.82h-56.86l-18.18 89.36h-1.24l-18.02-89.36h-58.56V204h32.36z"/></g></g><g style="display:inherit"><g style="display:block"><path d="M390.08 143.9c0 49.62 12.48 61.95 62.4 61.95 49.93 0 62.4-12.33 62.4-61.94 0-49.62-12.47-61.94-62.4-61.94-49.92 0-62.4 12.32-62.4 61.94zm62.4-35.74c25.74 0 28.5 3.54 28.5 35.75 0 32.2-2.76 35.74-28.5 35.74-25.73 0-28.5-3.54-28.5-35.74 0-32.21 2.77-35.75 28.5-35.75z"/></g></g><g style="display:inherit"><g style="display:block"><path d="M521.66 143.9c0 49.62 12.48 61.95 62.4 61.95 49.93 0 62.4-12.33 62.4-61.94 0-49.62-12.47-61.94-62.4-61.94-49.92 0-62.4 12.32-62.4 61.94zm62.4-35.74c25.74 0 28.5 3.54 28.5 35.75 0 32.2-2.76 35.74-28.5 35.74-25.73 0-28.5-3.54-28.5-35.74 0-32.21 2.77-35.75 28.5-35.75z"/></g></g><g style="display:inherit"><g style="display:block"><path d="M656.32 204h32.36v-47.46h46.23V204h32.35V83.82H734.9v44.99h-46.23v-45h-32.36V204z"/></g></g></g></g><g clip-path="url(#l)" style="display:block" transform="matrix(.42 0 0 .42 1172 714)"><g style="display:block" fill="#FFF" stroke="#000" stroke-width=".01" font-size="153" font-family="Basement Grotesque" font-weight="900" aria-label="MOOH" stroke-linejoin="round"><g style="display:inherit"><g style="display:block"><path d="M259.97 204v-89.37h.93L278.92 204H329l18.18-89.37h.93V204h32.36V83.82h-56.86l-18.18 89.36h-1.24l-18.02-89.36h-58.56V204h32.36z"/></g></g><g style="display:inherit"><g style="display:block"><path d="M390.08 143.9c0 49.62 12.48 61.95 62.4 61.95 49.93 0 62.4-12.33 62.4-61.94 0-49.62-12.47-61.94-62.4-61.94-49.92 0-62.4 12.32-62.4 61.94zm62.4-35.74c25.74 0 28.5 3.54 28.5 35.75 0 32.2-2.76 35.74-28.5 35.74-25.73 0-28.5-3.54-28.5-35.74 0-32.21 2.77-35.75 28.5-35.75z"/></g></g><g style="display:inherit"><g style="display:block"><path d="M521.66 143.9c0 49.62 12.48 61.95 62.4 61.95 49.93 0 62.4-12.33 62.4-61.94 0-49.62-12.47-61.94-62.4-61.94-49.92 0-62.4 12.32-62.4 61.94zm62.4-35.74c25.74 0 28.5 3.54 28.5 35.75 0 32.2-2.76 35.74-28.5 35.74-25.73 0-28.5-3.54-28.5-35.74 0-32.21 2.77-35.75 28.5-35.75z"/></g></g><g style="display:inherit"><g style="display:block"><path d="M656.32 204h32.36v-47.46h46.23V204h32.35V83.82H734.9v44.99h-46.23v-45h-32.36V204z"/></g></g></g></g><g clip-path="url(#m)" style="display:block" transform="matrix(.42 0 0 .42 1594 477)"><g style="display:block" fill="#FFF" stroke="#000" stroke-width=".01" font-size="153" font-family="Basement Grotesque" font-weight="900" aria-label="MOOH" stroke-linejoin="round"><g style="display:inherit"><g style="display:block"><path d="M259.97 204v-89.37h.93L278.92 204H329l18.18-89.37h.93V204h32.36V83.82h-56.86l-18.18 89.36h-1.24l-18.02-89.36h-58.56V204h32.36z"/></g></g><g style="display:inherit"><g style="display:block"><path d="M390.08 143.9c0 49.62 12.48 61.95 62.4 61.95 49.93 0 62.4-12.33 62.4-61.94 0-49.62-12.47-61.94-62.4-61.94-49.92 0-62.4 12.32-62.4 61.94zm62.4-35.74c25.74 0 28.5 3.54 28.5 35.75 0 32.2-2.76 35.74-28.5 35.74-25.73 0-28.5-3.54-28.5-35.74 0-32.21 2.77-35.75 28.5-35.75z"/></g></g><g style="display:inherit"><g style="display:block"><path d="M521.66 143.9c0 49.62 12.48 61.95 62.4 61.95 49.93 0 62.4-12.33 62.4-61.94 0-49.62-12.47-61.94-62.4-61.94-49.92 0-62.4 12.32-62.4 61.94zm62.4-35.74c25.74 0 28.5 3.54 28.5 35.75 0 32.2-2.76 35.74-28.5 35.74-25.73 0-28.5-3.54-28.5-35.74 0-32.21 2.77-35.75 28.5-35.75z"/></g></g><g style="display:inherit"><g style="display:block"><path d="M656.32 204h32.36v-47.46h46.23V204h32.35V83.82H734.9v44.99h-46.23v-45h-32.36V204z"/></g></g></g></g><g clip-path="url(#n)" style="display:block" transform="matrix(.42 0 0 .42 1594 239)"><g style="display:block" fill="#FFF" stroke="#000" stroke-width=".01" font-size="153" font-family="Basement Grotesque" font-weight="900" aria-label="MOOH" stroke-linejoin="round"><g style="display:inherit"><g style="display:block"><path d="M259.97 204v-89.37h.93L278.92 204H329l18.18-89.37h.93V204h32.36V83.82h-56.86l-18.18 89.36h-1.24l-18.02-89.36h-58.56V204h32.36z"/></g></g><g style="display:inherit"><g style="display:block"><path d="M390.08 143.9c0 49.62 12.48 61.95 62.4 61.95 49.93 0 62.4-12.33 62.4-61.94 0-49.62-12.47-61.94-62.4-61.94-49.92 0-62.4 12.32-62.4 61.94zm62.4-35.74c25.74 0 28.5 3.54 28.5 35.75 0 32.2-2.76 35.74-28.5 35.74-25.73 0-28.5-3.54-28.5-35.74 0-32.21 2.77-35.75 28.5-35.75z"/></g></g><g style="display:inherit"><g style="display:block"><path d="M521.66 143.9c0 49.62 12.48 61.95 62.4 61.95 49.93 0 62.4-12.33 62.4-61.94 0-49.62-12.47-61.94-62.4-61.94-49.92 0-62.4 12.32-62.4 61.94zm62.4-35.74c25.74 0 28.5 3.54 28.5 35.75 0 32.2-2.76 35.74-28.5 35.74-25.73 0-28.5-3.54-28.5-35.74 0-32.21 2.77-35.75 28.5-35.75z"/></g></g><g style="display:inherit"><g style="display:block"><path d="M656.32 204h32.36v-47.46h46.23V204h32.35V83.82H734.9v44.99h-46.23v-45h-32.36V204z"/></g></g></g></g><g clip-path="url(#o)" style="display:block" transform="matrix(.42 0 0 .42 1594 952)"><g style="display:block" fill="#FFF" stroke="#000" stroke-width=".01" font-size="153" font-family="Basement Grotesque" font-weight="900" aria-label="MOOH" stroke-linejoin="round"><g style="display:inherit"><g style="display:block"><path d="M259.97 204v-89.37h.93L278.92 204H329l18.18-89.37h.93V204h32.36V83.82h-56.86l-18.18 89.36h-1.24l-18.02-89.36h-58.56V204h32.36z"/></g></g><g style="display:inherit"><g style="display:block"><path d="M390.08 143.9c0 49.62 12.48 61.95 62.4 61.95 49.93 0 62.4-12.33 62.4-61.94 0-49.62-12.47-61.94-62.4-61.94-49.92 0-62.4 12.32-62.4 61.94zm62.4-35.74c25.74 0 28.5 3.54 28.5 35.75 0 32.2-2.76 35.74-28.5 35.74-25.73 0-28.5-3.54-28.5-35.74 0-32.21 2.77-35.75 28.5-35.75z"/></g></g><g style="display:inherit"><g style="display:block"><path d="M521.66 143.9c0 49.62 12.48 61.95 62.4 61.95 49.93 0 62.4-12.33 62.4-61.94 0-49.62-12.47-61.94-62.4-61.94-49.92 0-62.4 12.32-62.4 61.94zm62.4-35.74c25.74 0 28.5 3.54 28.5 35.75 0 32.2-2.76 35.74-28.5 35.74-25.73 0-28.5-3.54-28.5-35.74 0-32.21 2.77-35.75 28.5-35.75z"/></g></g><g style="display:inherit"><g style="display:block"><path d="M656.32 204h32.36v-47.46h46.23V204h32.35V83.82H734.9v44.99h-46.23v-45h-32.36V204z"/></g></g></g></g><g clip-path="url(#p)" style="display:block" transform="matrix(.42 0 0 .42 1594 1)"><g style="display:block" fill="#FFF" stroke="#000" stroke-width=".01" font-size="153" font-family="Basement Grotesque" font-weight="900" aria-label="MOOH" stroke-linejoin="round"><g style="display:inherit"><g style="display:block"><path d="M259.97 204v-89.37h.93L278.92 204H329l18.18-89.37h.93V204h32.36V83.82h-56.86l-18.18 89.36h-1.24l-18.02-89.36h-58.56V204h32.36z"/></g></g><g style="display:inherit"><g style="display:block"><path d="M390.08 143.9c0 49.62 12.48 61.95 62.4 61.95 49.93 0 62.4-12.33 62.4-61.94 0-49.62-12.47-61.94-62.4-61.94-49.92 0-62.4 12.32-62.4 61.94zm62.4-35.74c25.74 0 28.5 3.54 28.5 35.75 0 32.2-2.76 35.74-28.5 35.74-25.73 0-28.5-3.54-28.5-35.74 0-32.21 2.77-35.75 28.5-35.75z"/></g></g><g style="display:inherit"><g style="display:block"><path d="M521.66 143.9c0 49.62 12.48 61.95 62.4 61.95 49.93 0 62.4-12.33 62.4-61.94 0-49.62-12.47-61.94-62.4-61.94-49.92 0-62.4 12.32-62.4 61.94zm62.4-35.74c25.74 0 28.5 3.54 28.5 35.75 0 32.2-2.76 35.74-28.5 35.74-25.73 0-28.5-3.54-28.5-35.74 0-32.21 2.77-35.75 28.5-35.75z"/></g></g><g style="display:inherit"><g style="display:block"><path d="M656.32 204h32.36v-47.46h46.23V204h32.35V83.82H734.9v44.99h-46.23v-45h-32.36V204z"/></g></g></g></g><g clip-path="url(#q)" style="display:block" transform="matrix(.42 0 0 .42 1594 714)"><g style="display:block" fill="#FFF" stroke="#000" stroke-width=".01" font-size="153" font-family="Basement Grotesque" font-weight="900" aria-label="MOOH" stroke-linejoin="round"><g style="display:inherit"><g style="display:block"><path d="M259.97 204v-89.37h.93L278.92 204H329l18.18-89.37h.93V204h32.36V83.82h-56.86l-18.18 89.36h-1.24l-18.02-89.36h-58.56V204h32.36z"/></g></g><g style="display:inherit"><g style="display:block"><path d="M390.08 143.9c0 49.62 12.48 61.95 62.4 61.95 49.93 0 62.4-12.33 62.4-61.94 0-49.62-12.47-61.94-62.4-61.94-49.92 0-62.4 12.32-62.4 61.94zm62.4-35.74c25.74 0 28.5 3.54 28.5 35.75 0 32.2-2.76 35.74-28.5 35.74-25.73 0-28.5-3.54-28.5-35.74 0-32.21 2.77-35.75 28.5-35.75z"/></g></g><g style="display:inherit"><g style="display:block"><path d="M521.66 143.9c0 49.62 12.48 61.95 62.4 61.95 49.93 0 62.4-12.33 62.4-61.94 0-49.62-12.47-61.94-62.4-61.94-49.92 0-62.4 12.32-62.4 61.94zm62.4-35.74c25.74 0 28.5 3.54 28.5 35.75 0 32.2-2.76 35.74-28.5 35.74-25.73 0-28.5-3.54-28.5-35.74 0-32.21 2.77-35.75 28.5-35.75z"/></g></g><g style="display:inherit"><g style="display:block"><path d="M656.32 204h32.36v-47.46h46.23V204h32.35V83.82H734.9v44.99h-46.23v-45h-32.36V204z"/></g></g></g></g><g clip-path="url(#r)" style="display:block" transform="matrix(.42 0 0 .42 -94 477)"><g style="display:block" fill="#FFF" stroke="#000" stroke-width=".01" font-size="153" font-family="Basement Grotesque" font-weight="900" aria-label="MOOH" stroke-linejoin="round"><g style="display:inherit"><g style="display:block"><path d="M259.97 204v-89.37h.93L278.92 204H329l18.18-89.37h.93V204h32.36V83.82h-56.86l-18.18 89.36h-1.24l-18.02-89.36h-58.56V204h32.36z"/></g></g><g style="display:inherit"><g style="display:block"><path d="M390.08 143.9c0 49.62 12.48 61.95 62.4 61.95 49.93 0 62.4-12.33 62.4-61.94 0-49.62-12.47-61.94-62.4-61.94-49.92 0-62.4 12.32-62.4 61.94zm62.4-35.74c25.74 0 28.5 3.54 28.5 35.75 0 32.2-2.76 35.74-28.5 35.74-25.73 0-28.5-3.54-28.5-35.74 0-32.21 2.77-35.75 28.5-35.75z"/></g></g><g style="display:inherit"><g style="display:block"><path d="M521.66 143.9c0 49.62 12.48 61.95 62.4 61.95 49.93 0 62.4-12.33 62.4-61.94 0-49.62-12.47-61.94-62.4-61.94-49.92 0-62.4 12.32-62.4 61.94zm62.4-35.74c25.74 0 28.5 3.54 28.5 35.75 0 32.2-2.76 35.74-28.5 35.74-25.73 0-28.5-3.54-28.5-35.74 0-32.21 2.77-35.75 28.5-35.75z"/></g></g><g style="display:inherit"><g style="display:block"><path d="M656.32 204h32.36v-47.46h46.23V204h32.35V83.82H734.9v44.99h-46.23v-45h-32.36V204z"/></g></g></g></g><g clip-path="url(#s)" style="display:block" transform="matrix(.42 0 0 .42 -94 239)"><g style="display:block" fill="#FFF" stroke="#000" stroke-width=".01" font-size="153" font-family="Basement Grotesque" font-weight="900" aria-label="MOOH" stroke-linejoin="round"><g style="display:inherit"><g style="display:block"><path d="M259.97 204v-89.37h.93L278.92 204H329l18.18-89.37h.93V204h32.36V83.82h-56.86l-18.18 89.36h-1.24l-18.02-89.36h-58.56V204h32.36z"/></g></g><g style="display:inherit"><g style="display:block"><path d="M390.08 143.9c0 49.62 12.48 61.95 62.4 61.95 49.93 0 62.4-12.33 62.4-61.94 0-49.62-12.47-61.94-62.4-61.94-49.92 0-62.4 12.32-62.4 61.94zm62.4-35.74c25.74 0 28.5 3.54 28.5 35.75 0 32.2-2.76 35.74-28.5 35.74-25.73 0-28.5-3.54-28.5-35.74 0-32.21 2.77-35.75 28.5-35.75z"/></g></g><g style="display:inherit"><g style="display:block"><path d="M521.66 143.9c0 49.62 12.48 61.95 62.4 61.95 49.93 0 62.4-12.33 62.4-61.94 0-49.62-12.47-61.94-62.4-61.94-49.92 0-62.4 12.32-62.4 61.94zm62.4-35.74c25.74 0 28.5 3.54 28.5 35.75 0 32.2-2.76 35.74-28.5 35.74-25.73 0-28.5-3.54-28.5-35.74 0-32.21 2.77-35.75 28.5-35.75z"/></g></g><g style="display:inherit"><g style="display:block"><path d="M656.32 204h32.36v-47.46h46.23V204h32.35V83.82H734.9v44.99h-46.23v-45h-32.36V204z"/></g></g></g></g><g clip-path="url(#t)" style="display:block" transform="matrix(.42 0 0 .42 -94 952)"><g style="display:block" fill="#FFF" stroke="#000" stroke-width=".01" font-size="153" font-family="Basement Grotesque" font-weight="900" aria-label="MOOH" stroke-linejoin="round"><g style="display:inherit"><g style="display:block"><path d="M259.97 204v-89.37h.93L278.92 204H329l18.18-89.37h.93V204h32.36V83.82h-56.86l-18.18 89.36h-1.24l-18.02-89.36h-58.56V204h32.36z"/></g></g><g style="display:inherit"><g style="display:block"><path d="M390.08 143.9c0 49.62 12.48 61.95 62.4 61.95 49.93 0 62.4-12.33 62.4-61.94 0-49.62-12.47-61.94-62.4-61.94-49.92 0-62.4 12.32-62.4 61.94zm62.4-35.74c25.74 0 28.5 3.54 28.5 35.75 0 32.2-2.76 35.74-28.5 35.74-25.73 0-28.5-3.54-28.5-35.74 0-32.21 2.77-35.75 28.5-35.75z"/></g></g><g style="display:inherit"><g style="display:block"><path d="M521.66 143.9c0 49.62 12.48 61.95 62.4 61.95 49.93 0 62.4-12.33 62.4-61.94 0-49.62-12.47-61.94-62.4-61.94-49.92 0-62.4 12.32-62.4 61.94zm62.4-35.74c25.74 0 28.5 3.54 28.5 35.75 0 32.2-2.76 35.74-28.5 35.74-25.73 0-28.5-3.54-28.5-35.74 0-32.21 2.77-35.75 28.5-35.75z"/></g></g><g style="display:inherit"><g style="display:block"><path d="M656.32 204h32.36v-47.46h46.23V204h32.35V83.82H734.9v44.99h-46.23v-45h-32.36V204z"/></g></g></g></g><g clip-path="url(#u)" style="display:block" transform="matrix(.42 0 0 .42 -94 1)"><g style="display:block" fill="#FFF" stroke="#000" stroke-width=".01" font-size="153" font-family="Basement Grotesque" font-weight="900" aria-label="MOOH" stroke-linejoin="round"><g style="display:inherit"><g style="display:block"><path d="M259.97 204v-89.37h.93L278.92 204H329l18.18-89.37h.93V204h32.36V83.82h-56.86l-18.18 89.36h-1.24l-18.02-89.36h-58.56V204h32.36z"/></g></g><g style="display:inherit"><g style="display:block"><path d="M390.08 143.9c0 49.62 12.48 61.95 62.4 61.95 49.93 0 62.4-12.33 62.4-61.94 0-49.62-12.47-61.94-62.4-61.94-49.92 0-62.4 12.32-62.4 61.94zm62.4-35.74c25.74 0 28.5 3.54 28.5 35.75 0 32.2-2.76 35.74-28.5 35.74-25.73 0-28.5-3.54-28.5-35.74 0-32.21 2.77-35.75 28.5-35.75z"/></g></g><g style="display:inherit"><g style="display:block"><path d="M521.66 143.9c0 49.62 12.48 61.95 62.4 61.95 49.93 0 62.4-12.33 62.4-61.94 0-49.62-12.47-61.94-62.4-61.94-49.92 0-62.4 12.32-62.4 61.94zm62.4-35.74c25.74 0 28.5 3.54 28.5 35.75 0 32.2-2.76 35.74-28.5 35.74-25.73 0-28.5-3.54-28.5-35.74 0-32.21 2.77-35.75 28.5-35.75z"/></g></g><g style="display:inherit"><g style="display:block"><path d="M656.32 204h32.36v-47.46h46.23V204h32.35V83.82H734.9v44.99h-46.23v-45h-32.36V204z"/></g></g></g></g><g clip-path="url(#v)" style="display:block" transform="matrix(.42 0 0 .42 -94 714)"><g style="display:block" fill="#FFF" stroke="#000" stroke-width=".01" font-size="153" font-family="Basement Grotesque" font-weight="900" aria-label="MOOH" stroke-linejoin="round"><g style="display:inherit"><g style="display:block"><path d="M259.97 204v-89.37h.93L278.92 204H329l18.18-89.37h.93V204h32.36V83.82h-56.86l-18.18 89.36h-1.24l-18.02-89.36h-58.56V204h32.36z"/></g></g><g style="display:inherit"><g style="display:block"><path d="M390.08 143.9c0 49.62 12.48 61.95 62.4 61.95 49.93 0 62.4-12.33 62.4-61.94 0-49.62-12.47-61.94-62.4-61.94-49.92 0-62.4 12.32-62.4 61.94zm62.4-35.74c25.74 0 28.5 3.54 28.5 35.75 0 32.2-2.76 35.74-28.5 35.74-25.73 0-28.5-3.54-28.5-35.74 0-32.21 2.77-35.75 28.5-35.75z"/></g></g><g style="display:inherit"><g style="display:block"><path d="M521.66 143.9c0 49.62 12.48 61.95 62.4 61.95 49.93 0 62.4-12.33 62.4-61.94 0-49.62-12.47-61.94-62.4-61.94-49.92 0-62.4 12.32-62.4 61.94zm62.4-35.74c25.74 0 28.5 3.54 28.5 35.75 0 32.2-2.76 35.74-28.5 35.74-25.73 0-28.5-3.54-28.5-35.74 0-32.21 2.77-35.75 28.5-35.75z"/></g></g><g style="display:inherit"><g style="display:block"><path d="M656.32 204h32.36v-47.46h46.23V204h32.35V83.82H734.9v44.99h-46.23v-45h-32.36V204z"/></g></g></g></g><g clip-path="url(#w)" style="display:block" transform="matrix(.42 0 0 .42 328 477)"><g style="display:block" fill="#FFF" stroke="#000" stroke-width=".01" font-size="153" font-family="Basement Grotesque" font-weight="900" aria-label="MOOH" stroke-linejoin="round"><g style="display:inherit"><g style="display:block"><path d="M259.97 204v-89.37h.93L278.92 204H329l18.18-89.37h.93V204h32.36V83.82h-56.86l-18.18 89.36h-1.24l-18.02-89.36h-58.56V204h32.36z"/></g></g><g style="display:inherit"><g style="display:block"><path d="M390.08 143.9c0 49.62 12.48 61.95 62.4 61.95 49.93 0 62.4-12.33 62.4-61.94 0-49.62-12.47-61.94-62.4-61.94-49.92 0-62.4 12.32-62.4 61.94zm62.4-35.74c25.74 0 28.5 3.54 28.5 35.75 0 32.2-2.76 35.74-28.5 35.74-25.73 0-28.5-3.54-28.5-35.74 0-32.21 2.77-35.75 28.5-35.75z"/></g></g><g style="display:inherit"><g style="display:block"><path d="M521.66 143.9c0 49.62 12.48 61.95 62.4 61.95 49.93 0 62.4-12.33 62.4-61.94 0-49.62-12.47-61.94-62.4-61.94-49.92 0-62.4 12.32-62.4 61.94zm62.4-35.74c25.74 0 28.5 3.54 28.5 35.75 0 32.2-2.76 35.74-28.5 35.74-25.73 0-28.5-3.54-28.5-35.74 0-32.21 2.77-35.75 28.5-35.75z"/></g></g><g style="display:inherit"><g style="display:block"><path d="M656.32 204h32.36v-47.46h46.23V204h32.35V83.82H734.9v44.99h-46.23v-45h-32.36V204z"/></g></g></g></g><g clip-path="url(#x)" style="display:block" transform="matrix(.42 0 0 .42 328 239)"><g style="display:block" fill="#FFF" stroke="#000" stroke-width=".01" font-size="153" font-family="Basement Grotesque" font-weight="900" aria-label="MOOH" stroke-linejoin="round"><g style="display:inherit"><g style="display:block"><path d="M259.97 204v-89.37h.93L278.92 204H329l18.18-89.37h.93V204h32.36V83.82h-56.86l-18.18 89.36h-1.24l-18.02-89.36h-58.56V204h32.36z"/></g></g><g style="display:inherit"><g style="display:block"><path d="M390.08 143.9c0 49.62 12.48 61.95 62.4 61.95 49.93 0 62.4-12.33 62.4-61.94 0-49.62-12.47-61.94-62.4-61.94-49.92 0-62.4 12.32-62.4 61.94zm62.4-35.74c25.74 0 28.5 3.54 28.5 35.75 0 32.2-2.76 35.74-28.5 35.74-25.73 0-28.5-3.54-28.5-35.74 0-32.21 2.77-35.75 28.5-35.75z"/></g></g><g style="display:inherit"><g style="display:block"><path d="M521.66 143.9c0 49.62 12.48 61.95 62.4 61.95 49.93 0 62.4-12.33 62.4-61.94 0-49.62-12.47-61.94-62.4-61.94-49.92 0-62.4 12.32-62.4 61.94zm62.4-35.74c25.74 0 28.5 3.54 28.5 35.75 0 32.2-2.76 35.74-28.5 35.74-25.73 0-28.5-3.54-28.5-35.74 0-32.21 2.77-35.75 28.5-35.75z"/></g></g><g style="display:inherit"><g style="display:block"><path d="M656.32 204h32.36v-47.46h46.23V204h32.35V83.82H734.9v44.99h-46.23v-45h-32.36V204z"/></g></g></g></g><g clip-path="url(#y)" style="display:block" transform="matrix(.42 0 0 .42 328 952)"><g style="display:block" fill="#FFF" stroke="#000" stroke-width=".01" font-size="153" font-family="Basement Grotesque" font-weight="900" aria-label="MOOH" stroke-linejoin="round"><g style="display:inherit"><g style="display:block"><path d="M259.97 204v-89.37h.93L278.92 204H329l18.18-89.37h.93V204h32.36V83.82h-56.86l-18.18 89.36h-1.24l-18.02-89.36h-58.56V204h32.36z"/></g></g><g style="display:inherit"><g style="display:block"><path d="M390.08 143.9c0 49.62 12.48 61.95 62.4 61.95 49.93 0 62.4-12.33 62.4-61.94 0-49.62-12.47-61.94-62.4-61.94-49.92 0-62.4 12.32-62.4 61.94zm62.4-35.74c25.74 0 28.5 3.54 28.5 35.75 0 32.2-2.76 35.74-28.5 35.74-25.73 0-28.5-3.54-28.5-35.74 0-32.21 2.77-35.75 28.5-35.75z"/></g></g><g style="display:inherit"><g style="display:block"><path d="M521.66 143.9c0 49.62 12.48 61.95 62.4 61.95 49.93 0 62.4-12.33 62.4-61.94 0-49.62-12.47-61.94-62.4-61.94-49.92 0-62.4 12.32-62.4 61.94zm62.4-35.74c25.74 0 28.5 3.54 28.5 35.75 0 32.2-2.76 35.74-28.5 35.74-25.73 0-28.5-3.54-28.5-35.74 0-32.21 2.77-35.75 28.5-35.75z"/></g></g><g style="display:inherit"><g style="display:block"><path d="M656.32 204h32.36v-47.46h46.23V204h32.35V83.82H734.9v44.99h-46.23v-45h-32.36V204z"/></g></g></g></g><g clip-path="url(#z)" style="display:block" transform="matrix(.42 0 0 .42 328 1)"><g style="display:block" fill="#FFF" stroke="#000" stroke-width=".01" font-size="153" font-family="Basement Grotesque" font-weight="900" aria-label="MOOH" stroke-linejoin="round"><g style="display:inherit"><g style="display:block"><path d="M259.97 204v-89.37h.93L278.92 204H329l18.18-89.37h.93V204h32.36V83.82h-56.86l-18.18 89.36h-1.24l-18.02-89.36h-58.56V204h32.36z"/></g></g><g style="display:inherit"><g style="display:block"><path d="M390.08 143.9c0 49.62 12.48 61.95 62.4 61.95 49.93 0 62.4-12.33 62.4-61.94 0-49.62-12.47-61.94-62.4-61.94-49.92 0-62.4 12.32-62.4 61.94zm62.4-35.74c25.74 0 28.5 3.54 28.5 35.75 0 32.2-2.76 35.74-28.5 35.74-25.73 0-28.5-3.54-28.5-35.74 0-32.21 2.77-35.75 28.5-35.75z"/></g></g><g style="display:inherit"><g style="display:block"><path d="M521.66 143.9c0 49.62 12.48 61.95 62.4 61.95 49.93 0 62.4-12.33 62.4-61.94 0-49.62-12.47-61.94-62.4-61.94-49.92 0-62.4 12.32-62.4 61.94zm62.4-35.74c25.74 0 28.5 3.54 28.5 35.75 0 32.2-2.76 35.74-28.5 35.74-25.73 0-28.5-3.54-28.5-35.74 0-32.21 2.77-35.75 28.5-35.75z"/></g></g><g style="display:inherit"><g style="display:block"><path d="M656.32 204h32.36v-47.46h46.23V204h32.35V83.82H734.9v44.99h-46.23v-45h-32.36V204z"/></g></g></g></g><g clip-path="url(#A)" style="display:block" transform="matrix(.42 0 0 .42 328 714)"><g style="display:block" fill="#FFF" stroke="#000" stroke-width=".01" font-size="153" font-family="Basement Grotesque" font-weight="900" aria-label="MOOH" stroke-linejoin="round"><g style="display:inherit"><g style="display:block"><path d="M259.97 204v-89.37h.93L278.92 204H329l18.18-89.37h.93V204h32.36V83.82h-56.86l-18.18 89.36h-1.24l-18.02-89.36h-58.56V204h32.36z"/></g></g><g style="display:inherit"><g style="display:block"><path d="M390.08 143.9c0 49.62 12.48 61.95 62.4 61.95 49.93 0 62.4-12.33 62.4-61.94 0-49.62-12.47-61.94-62.4-61.94-49.92 0-62.4 12.32-62.4 61.94zm62.4-35.74c25.74 0 28.5 3.54 28.5 35.75 0 32.2-2.76 35.74-28.5 35.74-25.73 0-28.5-3.54-28.5-35.74 0-32.21 2.77-35.75 28.5-35.75z"/></g></g><g style="display:inherit"><g style="display:block"><path d="M521.66 143.9c0 49.62 12.48 61.95 62.4 61.95 49.93 0 62.4-12.33 62.4-61.94 0-49.62-12.47-61.94-62.4-61.94-49.92 0-62.4 12.32-62.4 61.94zm62.4-35.74c25.74 0 28.5 3.54 28.5 35.75 0 32.2-2.76 35.74-28.5 35.74-25.73 0-28.5-3.54-28.5-35.74 0-32.21 2.77-35.75 28.5-35.75z"/></g></g><g style="display:inherit"><g style="display:block"><path d="M656.32 204h32.36v-47.46h46.23V204h32.35V83.82H734.9v44.99h-46.23v-45h-32.36V204z"/></g></g></g></g></g></g></svg>