<svg xmlns="http://www.w3.org/2000/svg" width="1080" height="1080" style="width:100%;height:100%;transform:translate3d(0,0,0)"><defs><clipPath id="a"><path d="M0 0h1080v1080H0z"/></clipPath></defs><g style="display:block" clip-path="url(#a)"><path fill="#FFF" d="M475.06 980c28.72 4.2 34.87 12.46 30.63 41.45-4.24 29-12.5 35.15-41.22 30.95-28.72-4.2-34.94-11.36-31.16-35.92l19.8 2.9c-2.2 13.84-.8 15.6 13.6 17.71 14.5 2.12 16.42.28 19.17-18.53 2.75-18.82 1.43-21.13-13.06-23.25-14.4-2.1-16.25-.81-18.13 13.26l-19.8-2.9c3.42-24.69 11.44-29.86 40.17-25.67zM362.97 1026.79c-27.71-10.1-32.15-19.45-22.12-47 10.02-27.52 19.44-31.84 47.15-21.76 27.7 10.09 32.14 19.45 22.11 46.99-10.02 27.53-19.44 31.85-47.14 21.77zm28.33-28.62c6.5-17.87 5.69-20.4-8.6-25.6-14.28-5.2-16.53-3.8-23.04 14.08-6.5 17.87-5.68 20.4 8.6 25.6 14.28 5.2 16.54 3.79 23.04-14.08zM298.47 998.24l-15.42-9.5-6.37-49.48-.46-.29-20.35 33-16.27-10.04 37.26-60.4 15.34 9.45 6.5 49.45.46.28 20.3-32.92 16.27 10.03-37.26 60.42zM185.16 917.18c-21.48-20.2-21.86-30.56-1.78-51.9 20.07-21.34 30.43-21.6 51.9-1.4 21.48 20.21 21.86 30.56 1.79 51.9-20.08 21.35-30.44 21.6-51.91 1.4zm37.32-15.11c13.04-13.85 13.27-16.5 2.2-26.91-11.06-10.42-13.69-10.02-26.72 3.84-13.03 13.85-13.27 16.5-2.2 26.91 11.06 10.41 13.7 10.01 26.72-3.84zM176.22 795.86c16.73 23.72 14.98 33.87-8.97 50.76-23.94 16.89-34.09 15.14-50.82-8.59-16.73-23.72-15.82-33.16 4.59-47.33l11.54 16.36c-11.56 7.93-11.88 10.16-3.49 22.06 8.45 11.97 11.1 12.1 26.64 1.14 15.55-10.96 16.31-13.5 7.87-25.48-8.4-11.9-10.6-12.34-22.1-4.01l-11.54-16.36c20.27-14.52 29.55-12.27 46.28 11.45zM56.83 725.99l14.92-6.75 16.13 35.65 9.95-4.5-14.63-32.33 14.1-6.38 14.62 32.34 10.78-4.88-16.2-35.81 14.93-6.75 24.07 53.23-64.67 29.25-24-53.07zM45.35 693.9l-4.2-17.62 30.44-39.52-.13-.53-37.7 8.99-4.44-18.6 69.04-16.45 4.18 17.53-30.32 39.6.13.52 37.62-8.96 4.43 18.59-69.05 16.45zM22.39 555.76c-.61-29.48 6.51-37 35.8-37.6 29.3-.61 36.74 6.6 37.35 36.08.6 29.48-6.52 37-35.82 37.6-29.3.61-36.72-6.6-37.33-36.08zm36.92 16.07c19.02-.4 21.07-2.07 20.76-17.27-.32-15.2-2.44-16.79-21.46-16.4-19.01.4-21.07 2.08-20.76 17.28.32 15.2 2.44 16.79 21.46 16.4zM82.63 449.68c-4.04-.67-6.33 2.55-11.12 15.31-8.38 22.13-13.64 27.16-26.66 25-16.78-2.78-19.9-10.12-15.65-35.7 4.27-25.77 10.5-31.57 30.96-28.17l-3.28 19.75c-9.33-1.55-10.55-.37-12.42 10.94-1.85 11.14-1.44 12.59 3.85 13.47 3.68.6 5.46-1.77 9.01-10.96 9.47-25.37 15.48-31.56 29.57-29.22 15.98 2.65 18.82 10.04 14.48 36.16-4.45 26.84-10.54 32.93-30.2 29.67l3.28-19.75c8.44 1.4 9.58.11 11.57-11.92 2.03-12.2 1.73-13.73-3.4-14.58zM73.52 319.25l11.65-1.77-1.92 11 6.9-8.77 6.47 9.86-9.75 4.41 10.12 1.44-5.2 11.63-7.82-6.58 3.18 10.29-11.62 1.68 1.93-11-6.92 8.77-6.49-9.78 9.79-4.5-10.13-1.43 5.2-11.63 7.82 6.59-3.21-10.21zM193.96 260.68c-18.24 22.6-28.47 23.68-51.27 5.28-22.8-18.4-23.9-28.65-5.66-51.23 18.23-22.6 27.56-24.3 46.78-8.55l-12.58 15.58c-10.79-8.95-13.02-8.65-22.17 2.68-9.2 11.4-8.6 14 6.2 25.94 14.8 11.95 17.46 11.99 26.66.59 9.15-11.33 8.97-13.58-2.19-22.35l12.58-15.58c19.51 15.52 19.88 25.06 1.65 47.64zM210.55 140.42c22.74-18.77 33.06-17.84 51.7 4.75 18.66 22.6 17.61 32.9-5.12 51.67-22.74 18.77-33.06 17.85-51.71-4.75s-17.6-32.9 5.13-51.67zm10.3 38.93c12.12 14.67 14.71 15.24 26.43 5.56 11.72-9.67 11.65-12.33-.46-27-12.1-14.66-14.7-15.23-26.42-5.56-11.72 9.68-11.65 12.33.46 27zM267.83 99.26l16-8.47 45.9 19.57.47-.26-18.13-34.26 16.88-8.94 33.22 62.73-15.93 8.43-45.92-19.45-.48.26 18.1 34.18-16.9 8.94-33.2-62.73zM395.25 42.67c28.31-8.22 37.42-3.28 45.59 24.86 8.17 28.14 3.12 37.19-25.2 45.4-28.31 8.23-37.42 3.3-45.59-24.85-8.17-28.14-3.12-37.19 25.2-45.4zm-5.97 39.83c5.3 18.26 7.46 19.82 22.05 15.58 14.6-4.24 15.59-6.7 10.28-24.97-5.3-18.26-7.46-19.82-22.05-15.58-14.6 4.24-15.59 6.7-10.28 24.97zM504.25 96.74c-28.94 2.32-36.78-4.36-39.12-33.56-2.34-29.21 4.33-37.05 33.26-39.37 28.94-2.32 36.6 3.27 38.4 28.05l-19.95 1.6c-.94-13.98-2.7-15.4-17.2-14.23-14.61 1.17-16.08 3.39-14.56 22.35 1.52 18.95 3.32 20.9 17.93 19.74 14.51-1.17 16.02-2.84 14.7-16.98l19.96-1.6c2.17 24.84-4.49 31.67-33.42 34zM625.07 29.34l-1.75 16.3-38.91-4.2-1.17 10.87 35.29 3.79-1.65 15.38-35.3-3.8-1.25 11.77 39.08 4.2-1.75 16.29-58.09-6.25 7.59-70.57 57.9 6.22zM658.54 35.7l17.3 5.31 18.66 46.27.52.16 11.37-37.06 18.27 5.6-20.82 67.86-17.22-5.28-18.76-46.21-.52-.16L656 109.16l-18.27-5.6 20.8-67.86zM788.68 85.69c25.85 14.17 28.8 24.1 14.72 49.8-14.1 25.68-24.06 28.52-49.9 14.34-25.85-14.18-28.82-24.1-14.73-49.8 14.1-25.68 24.06-28.52 49.9-14.34zm-32.35 23.97c-9.15 16.68-8.72 19.3 4.6 26.6 13.33 7.31 15.77 6.27 24.92-10.4 9.14-16.68 8.71-19.3-4.61-26.61-13.33-7.3-15.77-6.26-24.91 10.41zM849.98 191.92c2.63-3.14 1.03-6.75-7.52-17.37-14.8-18.47-16.44-25.56-7.96-35.67 10.94-13.04 18.85-11.98 38.72 4.7 20 16.79 21.82 25.1 8.48 40.98l-15.33-12.87c6.08-7.25 5.68-8.9-3.1-16.26-8.64-7.26-10.1-7.65-13.55-3.54-2.4 2.86-1.26 5.6 4.84 13.34 17.02 21.06 19.3 29.38 10.11 40.33-10.41 12.4-18.22 11.08-38.5-5.95-20.84-17.5-22.99-25.83-10.17-41.1l15.33 12.88c-5.5 6.55-4.97 8.18 4.37 16.02 9.48 7.96 10.94 8.48 14.28 4.5zM966.97 250.17l-4.38 10.95-8.51-7.23 4.06 10.4-11.77.57 1.13-10.64-6.36 8-7.4-10.37 9.64-3.4-10.48-2.48 4.43-10.87 8.5 7.23-4.06-10.4 11.72-.65-1.07 10.72 6.36-8 7.4 10.36-9.64 3.41 10.43 2.4zM956.44 383.69c-10.2-27.18-5.94-36.56 21.49-46.86 27.43-10.3 36.8-6.05 47.01 21.13 10.2 27.18 6.94 36.09-16.38 44.65l-7.04-18.74c13.19-4.76 14.06-6.84 8.94-20.47-5.15-13.72-7.69-14.51-25.5-7.83-17.8 6.69-19.18 8.96-14.03 22.68 5.12 13.63 7.14 14.62 20.37 9.46l7.04 18.74c-23.28 8.94-31.69 4.41-41.9-22.76zM1051.56 459.18c4.57 29.13-1.48 37.54-30.43 42.08-28.95 4.54-37.28-1.61-41.85-30.74s1.48-37.54 30.43-42.08c28.95-4.54 37.28 1.6 41.85 30.74zm-38.75-10.96c-18.8 2.94-20.6 4.89-18.25 19.9 2.36 15.01 4.68 16.3 23.47 13.36 18.79-2.95 20.6-4.89 18.25-19.9-2.36-15.02-4.68-16.31-23.47-13.36zM1057.8 529.3l-.81 18.09-40.14 29.62-.03.54 38.73 1.75-.86 19.09-70.91-3.2.8-18 40.07-29.71.02-.55-38.64-1.74.87-19.1 70.9 3.2zM1041.97 667.78c-7.27 28.58-16.14 33.93-44.54 26.71-28.4-7.22-33.64-16.16-26.38-44.73 7.27-28.58 16.14-33.93 44.54-26.71 28.4 7.22 33.64 16.16 26.38 44.73zm-31.31-25.33c-18.44-4.69-20.87-3.61-24.61 11.12-3.75 14.73-2.12 16.83 16.31 21.52 18.44 4.68 20.87 3.61 24.61-11.12 3.75-14.73 2.12-16.83-16.31-21.52zM940.1 734.3c12.69-26.1 22.42-29.46 48.77-16.64 26.35 12.81 29.72 22.54 17.02 48.65-12.7 26.1-21.4 29.86-43.67 18.83l8.76-18c12.52 6.3 14.63 5.5 21-7.6 6.4-13.17 5.24-15.56-11.87-23.88-17.1-8.32-19.7-7.76-26.1 5.41-6.37 13.1-5.7 15.25 7.15 21.3l-8.76 18c-22.5-10.75-25-19.96-12.3-46.06zM936.6 872.6l-13.13-9.8 23.41-31.35-8.75-6.53-21.23 28.43-12.4-9.25 21.24-28.43-9.48-7.08-23.52 31.5-13.12-9.8 34.95-46.81 56.87 42.46-34.85 46.66zM914.19 898.08l-13.36 12.22-49.33-7.41-.4.37 26.16 28.6-14.1 12.9-47.91-52.37 13.3-12.17 49.33 7.29.4-.37-26.1-28.54 14.1-12.9 47.9 52.38zM805.19 984.9c-25.32 15.12-35.38 12.65-50.4-12.51-15.02-25.16-12.43-35.2 12.89-50.3 25.31-15.12 35.37-12.65 50.4 12.51 15.02 25.16 12.42 35.19-12.9 50.3zm-4.3-40.04c-9.75-16.33-12.23-17.28-25.28-9.5-13.05 7.8-13.38 10.43-3.63 26.76 9.75 16.33 12.23 17.3 25.28 9.5 13.04-7.8 13.38-10.43 3.63-26.76zM682.52 983.9c1.37 3.86 5.29 4.3 18.78 2.33 23.42-3.36 30.37-1.18 34.77 11.26 5.67 16.04.75 22.32-23.7 30.96-24.62 8.71-32.7 6.06-39.62-13.5l18.88-6.67c3.15 8.92 4.77 9.41 15.58 5.59 10.64-3.76 11.71-4.82 9.92-9.88-1.24-3.52-4.18-3.92-13.94-2.6-26.78 3.97-35.11 1.7-39.88-11.77-5.4-15.27-.3-21.32 24.67-30.14 25.65-9.07 33.92-6.7 40.57 12.1l-18.88 6.67c-2.85-8.06-4.52-8.44-16.02-4.37-11.67 4.12-12.86 5.13-11.13 10.02zM572.79 1054.95l-7.2-9.34 10.56-3.65-11.02-1.8 5.5-10.42 8.59 6.4-3.65-9.56 12.7-1.09-1.98 10.04 7.46-7.77 7.1 9.35-10.55 3.65 11.02 1.8-5.41 10.41-8.68-6.38 3.65 9.55-12.7 1.09 1.98-10.04-7.37 7.76z"/></g></svg>