<?xml version="1.0" encoding="utf-8"?>
<!-- Generator: Adobe Illustrator 26.4.1, SVG Export Plug-In . SVG Version: 6.00 Build 0)  -->
<svg version="1.1" id="Capa_1" xmlns="http://www.w3.org/2000/svg" xmlns:xlink="http://www.w3.org/1999/xlink" x="0px" y="0px"
	 viewBox="0 0 1080 1080" style="enable-background:new 0 0 1080 1080;" xml:space="preserve">
<style type="text/css">
	.st0{clip-path:url(#SVGID_00000100374633582593878960000013692075710179800745_);}
	.st1{clip-path:url(#SVGID_00000096040649441501771310000005099503472787398017_);}
	.st2{fill:#FFFFFF;}
</style>
<g>
	<defs>
		<rect id="SVGID_1_" width="1080" height="1080"/>
	</defs>
	<clipPath id="SVGID_00000176045488436140027630000011552414007807388801_">
		<use xlink:href="#SVGID_1_"  style="overflow:visible;"/>
	</clipPath>
	<g style="clip-path:url(#SVGID_00000176045488436140027630000011552414007807388801_);">
		<g>
			<defs>
				<rect id="SVGID_00000129205223182126026990000004211181915203914117_" width="1080" height="1080"/>
			</defs>
			<clipPath id="SVGID_00000119081111032258650690000001425219513905415853_">
				<use xlink:href="#SVGID_00000129205223182126026990000004211181915203914117_"  style="overflow:visible;"/>
			</clipPath>
			<g style="clip-path:url(#SVGID_00000119081111032258650690000001425219513905415853_);">
				<g>
					<path class="st2" d="M117.1,343.7L99.8,343l12.1,12.4l-13.1,7.4l-4.3-16l-7.9,14.5l-11.3-10.1l14.4-9.1l-17-3l6.1-13.8
						L92.3,336l-2.8-16.8l15.1,1.7L99,336.6l14.9-7.6L117.1,343.7L117.1,343.7z M155.6,255.8c3.6-3,7-5.5,10.2-7.5
						c2.9-1.9,6.1-3.3,9.4-4.2c3-0.8,6.1-0.8,9.1-0.2c3,0.6,6.1,2.1,9.4,4.4c2.8,2,5.2,4.6,7.1,7.6c1.8,2.9,2.8,6.1,3.1,9.6
						s-0.1,7.2-1.4,11.1c-1.4,4.3-3.6,8.4-6.3,12.1c-2.7,3.8-5.8,7.1-9.4,10c-3.1,2.5-6.6,4.4-10.3,5.6c-3.4,1.1-7,1.5-10.6,1.2
						c-3.7-0.4-7.2-1.5-10.4-3.2l10.4-17.4c3.8,1.7,7.2,2.2,10.3,1.4c3.1-0.8,6-3,8.6-6.6c1.9-2.7,2.9-5.2,3-7.7
						c0.1-2.3-1-4.6-2.9-5.9c-1-0.8-2.3-1.2-3.6-1.4c-1.4-0.1-2.8,0.2-4.1,0.7c-1.5,0.6-3.2,1.5-5.1,2.8c-1.9,1.3-4.1,3-6.6,4.9
						c-3.2,2.6-6.6,5-10.1,7.1c-3.1,1.8-6.1,3-9,3.6c-2.9,0.6-5.7,0.6-8.5-0.2c-3.1-0.9-6-2.3-8.6-4.3c-3-2.1-5.5-4.8-7.2-8.1
						c-1.5-3-2.3-6.3-2.4-9.6c-0.1-3.4,0.5-6.8,1.7-10.2c1.2-3.5,3-6.8,5.2-9.9c2.1-3,4.6-5.7,7.3-8.2c2.5-2.3,5.3-4.1,8.4-5.5
						c3-1.3,6.2-1.9,9.7-1.8c3.5,0.1,7.2,1,11.1,2.8l-9.7,16.7c-2.9-1.3-6.3-1.4-9.3-0.2c-1.3,0.5-2.4,1.2-3.4,2.1
						c-1,0.9-1.8,1.8-2.6,2.8c-1.7,2.4-2.5,4.6-2.4,6.8c0.1,2.1,1.1,4.1,2.9,5.2c1.8,1.3,4,1.4,6.7,0.4
						C147.8,261.7,151.3,259.4,155.6,255.8L155.6,255.8z M254.2,184.1c2.5,3.4,4.4,7.2,5.6,11.2c1.1,3.7,1.5,7.6,1.1,11.5
						c-0.4,3.8-1.5,7.6-3.4,11.3c-1.9,3.7-4.6,7.2-8.1,10.5c-4.4,4.2-9.1,7.2-14,9c-4.7,1.8-9.7,2.5-14.6,2.1
						c-5-0.4-9.9-1.9-14.4-4.3c-5-2.7-9.4-6.2-13.3-10.3l-1.2-1.3c-4-4.1-7.2-8.9-9.5-14.2c-2.1-5-3.2-10-3.2-15s1-9.8,3-14.5
						c2.2-4.9,5.4-9.3,9.3-12.9c6.9-6.6,14.1-10.1,21.4-10.5c7.4-0.4,14.5,2,21.4,7.3l-12.9,15.1c-4-2.9-7.7-4.3-10.9-4.3
						c-3.2,0-6.2,1.3-8.5,3.6c-1.6,1.5-2.9,3.3-3.7,5.3c-0.8,2.1-1.1,4.4-0.8,6.7c0.3,2.5,1.1,5.1,2.6,8c1.9,3.3,4.1,6.4,6.8,9.1
						l2.5,2.6c3.1,3.3,6.1,5.8,8.9,7.6c2.5,1.6,5.2,2.7,8.1,3.4c2.6,0.5,4.9,0.4,7.2-0.4c2.3-0.8,4.4-2.1,6.1-3.7
						c2.8-2.6,4.5-6.1,4.8-9.9c0.3-3.9-1-7.8-3.8-11.9L254.2,184.1L254.2,184.1z M240.9,127l27.7-17.5c9-5.7,17-8.1,24.2-7.1
						c7.1,1,12.8,4.8,17,11.4l0.5,0.8c2.3,3.7,3.6,8,3.6,12.3c0,4.7-1.2,9.2-3.5,13.3l30.9,20.1L323.1,172l-27.2-17.8l-9,5.7
						l15.9,25l-18,11.4L240.9,127L240.9,127z M267.1,128.5l12.3,19.4l9-5.7c3.4-2.2,5.4-4.7,6-7.6c0.5-2.9,0-5.6-1.6-8.2l-0.8-1.2
						c-3.8-5.9-9-6.7-15.9-2.4L267.1,128.5L267.1,128.5z M387.5,142.3c-4.8,1.9-9.9,2.8-15.1,2.8c-5,0-10-1.1-14.6-3.1
						c-4.6-2-8.9-5-12.7-9.1c-3.8-4-6.9-9.1-9.2-15.2l-0.5-1.4c-2.3-6.1-3.4-11.8-3.3-17.4c0.1-5.2,1.2-10.4,3.3-15.2
						c2.1-4.6,5.1-8.7,8.8-12.1c3.8-3.5,8.2-6.2,13.1-8c4.8-1.9,10-2.8,15.1-2.8c5,0,10,1.1,14.6,3.1c4.8,2.1,9.1,5.2,12.7,9.1
						c3.8,4,6.9,9.1,9.2,15.1l0.6,1.4c2.4,6.1,3.5,12,3.3,17.5c-0.1,5.2-1.2,10.4-3.3,15.2c-2.1,4.6-5.1,8.7-8.8,12.1
						C396.8,137.8,392.3,140.5,387.5,142.3L387.5,142.3z M387.8,95.1c-1.1-3-2.6-5.9-4.3-8.6c-1.6-2.4-3.5-4.6-5.8-6.4
						c-2.1-1.6-4.5-2.7-7-3.2c-2.5-0.5-5.2-0.2-8,0.9c-2.6,0.9-4.8,2.5-6.5,4.7c-1.6,2.1-2.6,4.5-3.1,7.1c-0.5,2.8-0.5,5.8,0,8.6
						c0.5,3.2,1.3,6.3,2.5,9.3l1.2,3.2c1.1,3,2.6,5.8,4.3,8.4c1.7,2.6,3.6,4.7,5.8,6.4c2.1,1.6,4.5,2.7,7,3.3c2.5,0.5,5.2,0.3,8-0.8
						c2.6-0.9,4.8-2.6,6.5-4.8c1.5-2.1,2.6-4.6,3-7.1c0.5-2.7,0.5-5.5,0-8.6c-0.5-3.1-1.3-6.2-2.5-9.2L387.8,95.1L387.8,95.1z
						 M490.8,114.8l-52.1,9.6l-14.8-80.6l21-3.9l11.9,64.8l31.2-5.7L490.8,114.8L490.8,114.8z M559.3,112.3l-53,1.1l-1.7-81.9
						l21.3-0.5l1.4,65.9l31.7-0.7L559.3,112.3z M616,35.7l30.2,6.4c5.3,1.1,9.9,2.8,13.6,4.8c3.4,1.8,6.5,4.4,8.9,7.4
						c2.1,2.8,3.6,6,4.3,9.4c0.7,3.4,0.6,7-0.2,10.9l-0.2,0.9c-0.7,3.6-2.2,7.1-4.2,10.1c-2,2.9-4.6,5.2-7.7,6.9
						c-3.5,1.8-7.2,2.8-11.1,3.1c-4.3,0.4-9.1,0-14.4-1.1l-9.4-2l-5.9,27.7l-20.8-4.4L616,35.7L616,35.7z M633.7,55l-5,23.7l8.7,1.8
						c4.3,0.9,7.6,0.5,9.9-1.2c2.3-1.7,3.9-4.3,4.6-7.9l0.3-1.3c0.8-3.6,0.4-6.5-1.1-8.7c-1.5-2.2-4.4-3.8-8.7-4.7
						C642.3,56.9,633.7,55,633.7,55z M715.5,62.1l22.2,8.5l-5.8,85.5l-19.5-7.4l1.2-17.3l-25.3-9.7l-10.9,13.6l-15.8-6.1L715.5,62.1
						L715.5,62.1z M714.7,116.7l2.1-30.5l-19.2,24L714.7,116.7L714.7,116.7z M793,142.8l28.7,18l-23.3,37l-14.1-8.8l4.8-7.7
						c-3.5,1.4-7.4,2-11.2,1.7c-4-0.3-8.2-1.9-12.6-4.6c-4.3-2.6-7.9-6.1-10.7-10.3c-2.6-3.9-4.3-8.4-5-13.1
						c-0.7-4.7-0.5-9.6,0.8-14.8c1.3-5.5,3.6-10.7,6.6-15.4l0.9-1.5c3-4.9,6.9-9.2,11.4-12.8c4.4-3.3,9-5.6,13.9-6.9
						c4.9-1.3,9.9-1.5,15.1-0.7c5.4,0.9,10.5,2.9,15,5.8c8.1,5.1,13.5,10.9,15.9,17.4s2.1,13.7-1,21.5l-17.9-8.4
						c1.4-4.2,1.6-7.7,0.7-10.6c-1-2.9-3-5.2-5.8-7c-1.9-1.2-4-2-6.2-2.3c-2.4-0.3-4.8,0-7,0.8c-2.4,0.9-4.8,2.4-7.3,4.6
						c-2.8,2.6-5.3,5.7-7.2,9l-1.9,3.1c-4.8,7.6-7.1,14-6.8,19c0.3,5,2.7,9,7.4,11.9c3.8,2.4,7.5,3.2,11.2,2.4
						c3.6-0.8,6.6-3,8.8-6.6l1.1-1.7l-11.7-7.3L793,142.8L793,142.8z M866.7,148.4l40.9,38l-10.4,11.2l-25.3-23.5l-11.8,12.6
						l18.5,17.2l-9.9,10.6l-18.5-17.2l-13.3,14.3l26.1,24.3l-10.4,11.2l-41.7-38.8L866.7,148.4L866.7,148.4z M924.5,275.6l9.4-14.5
						l-16.8,4l0.3-15.1l16,4.5l-8.4-14.2l14.4-4.6l0.5,17l11.3-13l8.7,12.3l-16.1,6.2l15.9,6.2l-9.1,12.1l-10.7-12.8l-1.1,16.7
						L924.5,275.6L924.5,275.6z M980.3,353.6c0.7,4.6,1.1,8.8,1.2,12.6c0.1,3.8-0.3,7.2-1.2,10.2c-0.9,3-2.4,5.6-4.4,7.9
						s-4.9,4.2-8.6,5.8c-3.2,1.4-6.6,2.2-10.1,2.2c-3.4,0-6.7-0.7-9.8-2.2c-3.4-1.7-6.4-4-8.8-6.8c-3-3.5-5.4-7.4-7.2-11.6
						c-2-4.6-3.3-9-3.8-13.2c-0.6-3.9-0.4-7.9,0.4-11.7c0.8-3.5,2.3-6.9,4.4-9.8c2.2-3,4.9-5.4,8.1-7.3l9.6,17.9
						c-3.4,2.3-5.5,5-6.5,8.1c-0.9,3-0.5,6.6,1.3,10.8c1.3,3,3,5.2,5.1,6.5c1.9,1.3,4.4,1.5,6.6,0.5c1.2-0.5,2.2-1.3,3-2.4
						c0.8-1.2,1.3-2.5,1.5-3.9c0.3-1.6,0.3-3.5,0.2-5.8s-0.5-5-0.8-8.2c-0.6-4.1-0.9-8.2-0.9-12.3c0-3.6,0.5-6.8,1.5-9.6
						c0.9-2.8,2.4-5.2,4.5-7.2c2.3-2.2,5.1-4,8.1-5.2c3.3-1.5,7-2.2,10.6-2c3.4,0.2,6.6,1.2,9.5,2.8c3,1.7,5.7,4,7.9,6.6
						c2.4,2.9,4.4,6.1,5.8,9.5c1.5,3.5,2.6,7,3.3,10.4c0.7,3.5,0.8,6.8,0.4,10c-0.5,3.3-1.6,6.5-3.4,9.3c-2.1,3.2-4.9,6-8.1,8.1
						l-9.4-16.9c1.4-1,2.6-2.3,3.5-3.8c0.7-1.2,1.2-2.6,1.5-4c0.2-1.4,0.2-2.7,0-4c-0.2-1.3-0.6-2.5-1.1-3.6
						c-1.2-2.7-2.7-4.5-4.6-5.6c-1.8-1-4.1-1.1-6-0.2c-2,0.9-3.3,2.7-3.7,5.5C979.2,343.8,979.4,348,980.3,353.6L980.3,353.6z
						 M991.8,474.9c-4.5,0.4-8.6,0.1-12.5-0.9c-3.8-0.9-7.3-2.6-10.5-4.9c-3.2-2.4-5.9-5.3-8-8.7c-2.3-3.8-4-8-4.9-12.3
						c-1.4-6-1.6-11.5-0.7-16.6c0.9-4.9,2.8-9.6,5.6-13.7c2.8-4,6.5-7.4,11-10.2c4.8-2.9,10.1-5,15.6-6.2l1.7-0.4
						c5.6-1.3,11.3-1.7,17-1c5.4,0.7,10.2,2.3,14.5,4.8c4.3,2.5,8.1,5.9,11,10c3.1,4.4,5.3,9.3,6.4,14.6c2.1,9.3,1.5,17.2-1.9,23.8
						c-3.4,6.5-9.1,11.5-17.2,14.7l-6.4-18.8c4.5-2,7.6-4.4,9.2-7.2c1.6-2.8,2-6,1.3-9.1c-0.5-2.2-1.4-4.2-2.7-5.9
						c-1.4-1.8-3.2-3.2-5.3-4.1c-2.6-1.1-5.4-1.7-8.2-1.8c-3.2-0.2-7,0.2-11.3,1.2l-3.5,0.8c-4.4,1-8.1,2.3-11,3.8
						c-2.6,1.3-5,3.1-7,5.2c-1.6,1.8-2.8,4-3.3,6.4c-0.5,2.3-0.5,4.7,0.1,7.1c0.8,3.7,3,7,6.1,9.2c3.2,2.2,7.2,3.1,12.2,2.8
						L991.8,474.9z M1047.7,492.5l1,32.8c0.3,10.6-1.7,18.8-6.2,24.4s-10.6,8.6-18.5,8.8l-1,0c-4.4,0.1-8.5-0.9-12.5-3.2
						c-4-2.3-7.4-5.7-9.6-9.8l-33,16.3l-0.7-21.5l29.2-14.4l-0.3-10.6l-29.6,0.9l-0.7-21.3L1047.7,492.5L1047.7,492.5z
						 M1033.1,514.2l-22.9,0.7l0.3,10.7c0.1,4.1,1.3,7.1,3.5,9c2.2,1.9,5,2.9,7.9,2.8l1.4,0c7-0.2,10.4-4.4,10.1-12.5L1033.1,514.2
						L1033.1,514.2z M959.9,610.8c0.8-5.1,2.6-10,5.3-14.4c2.6-4.3,6-8,10.1-11c4.3-3,9.1-5.2,14.3-6.3c5.4-1.2,11.4-1.3,17.8-0.2
						l1.5,0.2c6.4,1.1,11.9,3.1,16.6,6.1c4.7,3,8.5,6.5,11.4,10.6c2.9,4.1,4.9,8.8,5.9,13.7c1.1,5.1,1.2,10.3,0.3,15.3
						c-0.8,5.1-2.7,10-5.3,14.4c-2.6,4.3-6.1,8.1-10.1,11c-4.3,3-9.1,5.2-14.3,6.3c-5.4,1.2-11.3,1.3-17.7,0.2l-1.5-0.3
						c-6.5-1.1-12-3.1-16.8-6.1c-4.7-2.9-8.5-6.5-11.4-10.6c-2.9-4.1-4.9-8.8-5.8-13.8C959.1,621.1,959,615.9,959.9,610.8
						L959.9,610.8z M1000.3,635.2c3.3,0.6,6.5,0.8,9.6,0.6c3.1-0.1,5.9-0.7,8.4-1.7c2.4-1,4.6-2.5,6.4-4.4c1.8-2.1,2.9-4.6,3.3-7.3
						c0.5-2.9,0.3-5.6-0.7-8c-1-2.4-2.6-4.5-4.5-6.2c-2.2-1.9-4.7-3.4-7.4-4.4c-3-1.2-6.1-2.1-9.2-2.6l-3.4-0.6
						c-3.1-0.5-6.3-0.8-9.5-0.6c-3.1,0.1-5.9,0.7-8.4,1.7c-2.4,1-4.6,2.5-6.4,4.4c-1.8,2-3,4.6-3.4,7.3c-0.5,2.7-0.3,5.5,0.8,8
						c1,2.4,2.6,4.6,4.6,6.3c2.2,1.9,4.7,3.4,7.4,4.4c2.9,1.2,5.9,2,9.1,2.6L1000.3,635.2L1000.3,635.2z M930.8,713.7l18.4-49.7
						l76.8,28.4l-7.4,20l-61.8-22.8l-11,29.7L930.8,713.7L930.8,713.7z M898,773.9l26-46.2l71.4,40.2L985,786.5l-57.4-32.3
						L912,781.8L898,773.9L898,773.9z M935.1,861.8l-20.9,22.8c-3.7,4-7.4,7.1-11.1,9.2c-3.3,2-7,3.3-10.9,3.9
						c-3.6,0.4-7,0.1-10.2-1.1c-3.4-1.3-6.6-3.2-9.2-5.8l-0.7-0.7c-2.7-2.5-5-5.4-6.6-8.8c-1.5-3.2-2.1-6.6-2-10.1
						c0.2-3.9,1.2-7.7,3-11.1c1.8-3.9,4.6-7.8,8.3-11.8l6.5-7.1L860.4,822l14.4-15.7L935.1,861.8L935.1,861.8z M909.4,867.1
						l-17.9-16.4l-6,6.5c-3,3.2-4.3,6.3-4,9.2c0.3,2.9,1.8,5.5,4.4,8l1,0.9c2.7,2.5,5.4,3.7,8.1,3.5c2.7-0.2,5.5-1.9,8.4-5.1
						L909.4,867.1L909.4,867.1z M860.8,934.8L842,949.3l-70-49.4l16.5-12.8l14.1,10.1l21.4-16.6l-5.9-16.4l13.4-10.4L860.8,934.8
						L860.8,934.8z M814.6,905.7l25,17.7l-10.5-28.9L814.6,905.7L814.6,905.7z M752.6,959.4l-30.2,15.4l-19.9-38.9l14.8-7.6l4.1,8.1
						c0.6-3.8,2-7.4,4.3-10.5c2.3-3.3,5.8-6.1,10.5-8.5c4.4-2.3,9.3-3.7,14.3-4c4.8-0.2,9.4,0.6,13.8,2.4c4.4,1.8,8.5,4.5,12.3,8.2
						c4,3.9,7.3,8.5,9.8,13.6l0.8,1.6c2.7,5.1,4.4,10.6,5.1,16.3c0.6,5.2,0.2,10.4-1.2,15.5c-1.4,4.9-3.8,9.4-7.1,13.3
						c-3.3,4-7.6,7.3-12.7,9.9c-8.6,4.4-16.3,6-23.2,4.8c-6.9-1.2-12.8-5.2-17.9-11.9l16.4-11.1c2.9,3.4,5.8,5.3,8.8,6
						c3,0.6,6,0.1,9-1.4c2-1,3.8-2.5,5.2-4.2c1.5-1.9,2.5-4.1,2.9-6.4c0.5-2.5,0.4-5.4-0.2-8.6c-0.8-3.8-2.2-7.4-4-10.8l-1.7-3.2
						c-4.1-8-8.4-13.2-12.9-15.6c-4.5-2.3-9.1-2.2-14,0.2c-4,2.1-6.6,4.9-7.8,8.4c-1.2,3.5-0.8,7.2,1.1,10.9l0.9,1.8l12.3-6.3
						L752.6,959.4L752.6,959.4z M710.2,1019.8l-53.5,15.8l-4.3-14.7l33.1-9.8l-4.9-16.5l-24.2,7.2l-4.1-13.9l24.2-7.2l-5.5-18.8
						L636.7,972l-4.3-14.7l54.6-16.1L710.2,1019.8L710.2,1019.8z M571.4,1004.9l7.7,15.5l5.1-16.5l12.8,7.9l-12,11.5l16.5,0
						l-3.4,14.7l-14.9-8.2l5.5,16.3l-15,1.2l2.8-17l-13.4,10.5l-5.7-14l16.4-2.7l-13.8-9.4L571.4,1004.9L571.4,1004.9z
						 M475.8,1013.2c-3.9-1.5-7.8-3.3-11.5-5.4c-3-1.6-5.8-3.7-8.2-6.2c-2.1-2.2-3.7-4.9-4.5-7.8c-0.9-2.9-1.1-6.4-0.6-10.4
						c0.4-3.5,1.5-6.8,3.2-9.8c1.7-2.9,4-5.4,6.9-7.3c3.2-2,6.7-3.4,10.4-4.1c4.5-0.8,9.1-0.9,13.6-0.2c5,0.7,9.4,1.8,13.3,3.5
						c3.6,1.5,7,3.7,9.9,6.3c2.6,2.5,4.7,5.5,6.2,8.8c1.4,3.4,2.2,7,2.2,10.7l-20.3-0.8c-0.3-4.1-1.5-7.3-3.7-9.7s-5.5-3.8-10-4.4
						c-3.2-0.4-6-0.1-8.2,1.1c-2.1,1-3.6,3.1-3.8,5.4c-0.2,1.4,0,2.6,0.5,3.8c0.6,1.3,1.5,2.4,2.6,3.3c1.5,1.2,3.2,2.3,4.9,3.1
						c2.1,1,4.6,2.2,7.5,3.5c3.8,1.6,7.5,3.4,11.1,5.5c2.8,1.6,5.3,3.7,7.5,6.1c1.9,2.2,3.2,4.8,3.9,7.6c0.7,2.8,0.8,6,0.4,9.6
						c-0.4,3.6-1.6,7.1-3.7,10.2c-1.9,2.8-4.4,5-7.3,6.7c-3,1.7-6.3,2.9-9.7,3.4c-3.7,0.6-7.4,0.7-11.1,0.2
						c-3.8-0.5-7.3-1.3-10.6-2.5c-3.2-1.1-6.2-2.7-8.9-4.8c-2.6-2.1-4.7-4.7-6.2-7.7c-1.7-3.5-2.7-7.3-2.9-11.1l19.3,0.5
						c0.3,2,0.8,3.6,1.5,4.9c0.7,1.3,1.6,2.4,2.7,3.3c1.1,0.9,2.2,1.6,3.4,2c1.2,0.4,2.5,0.8,3.7,0.9c2.9,0.4,5.3,0,7.1-1.2
						c1.8-1.1,3-2.9,3.2-5c0.3-2.2-0.7-4.2-2.9-6C484.7,1017.2,481,1015.3,475.8,1013.2L475.8,1013.2z M365.6,961.1
						c1.8-3.8,4.2-7.3,7.1-10.3c2.7-2.8,6-5,9.6-6.5c3.7-1.5,7.6-2.3,11.6-2.4c4.2-0.1,8.5,0.6,13.1,2.1c5.8,1.9,10.7,4.5,14.6,7.9
						c3.8,3.2,6.8,7.3,8.9,11.8c2,4.5,3,9.4,3.1,14.7c0.1,5.3-0.8,10.8-2.7,16.6l-0.5,1.7c-1.7,5.5-4.4,10.6-7.9,15.1
						c-3.2,4.1-7.1,7.5-11.6,10c-4.4,2.4-9.2,3.9-14.2,4.3c-5.1,0.4-10.4-0.2-15.8-1.9c-9.1-2.9-15.6-7.5-19.5-13.8
						c-3.9-6.2-5.2-13.7-3.9-22.3l19.5,4.1c-0.6,4.9-0.1,8.8,1.5,11.6c1.6,2.8,4.1,4.8,7.2,5.8c2.1,0.7,4.3,0.9,6.4,0.7
						c2.3-0.3,4.4-1.1,6.2-2.5c2.3-1.7,4.2-3.7,5.7-6.1c2-3.2,3.6-6.7,4.7-10.4l1.1-3.4c1.4-4.3,2.2-8.1,2.4-11.4
						c0.2-3.3-0.1-6.2-0.9-8.7c-0.7-2.3-2-4.4-3.8-6.1c-1.8-1.6-3.9-2.8-6.2-3.6c-3.6-1.2-7.6-1-11,0.6c-3.5,1.6-6.4,4.6-8.6,9
						L365.6,961.1L365.6,961.1z M322,1000.3l-28.7-15.8c-9.3-5.1-15.3-11-17.8-17.8c-2.6-6.7-2-13.5,1.8-20.4l0.5-0.9
						c2.1-3.8,5.3-7,9.1-9.1c4.1-2.3,8.7-3.4,13.4-3.3l2.8-36.8l18.9,10.4l-2.5,32.4l9.3,5.1l14.3-25.9l18.7,10.3L322,1000.3
						L322,1000.3z M310.8,976.6l11.1-20.1l-9.4-5.2c-3.6-2-6.8-2.5-9.6-1.5s-4.9,2.7-6.4,5.4l-0.7,1.2c-3.4,6.1-1.5,11.2,5.6,15
						L310.8,976.6L310.8,976.6z M264.9,864.4c4,3.4,7.3,7.4,9.7,11.9c2.4,4.4,3.9,9.3,4.3,14.3c0.4,5.2-0.2,10.5-1.9,15.5
						c-1.7,5.3-4.7,10.4-8.9,15.4l-1,1.2c-4.2,4.9-8.8,8.7-13.7,11.2c-4.9,2.5-9.9,4-14.9,4.4c-5,0.4-10-0.3-14.8-1.9
						c-4.9-1.6-9.4-4.2-13.4-7.6c-4-3.3-7.3-7.4-9.7-12c-2.4-4.4-3.9-9.3-4.3-14.3c-0.4-5.2,0.2-10.5,1.9-15.5
						c1.7-5.3,4.7-10.4,8.9-15.3l1-1.2c4.2-5,8.8-8.8,13.8-11.3c4.6-2.5,9.7-4,14.9-4.4c5-0.4,10,0.3,14.8,2
						C256.4,858.5,261,861.1,264.9,864.4L264.9,864.4z M223.3,886.8c-2.1,2.4-3.9,5.1-5.4,7.9c-1.4,2.5-2.3,5.3-2.8,8.1
						c-0.4,2.6-0.2,5.2,0.6,7.7c0.8,2.5,2.3,4.7,4.6,6.6c2,1.8,4.6,3,7.2,3.4c2.6,0.4,5.1,0.1,7.7-0.7c2.6-0.8,5.1-2.2,7.6-4.1
						c2.5-2,4.9-4.2,6.9-6.6l2.2-2.7c2.1-2.4,3.9-5,5.3-7.8c1.4-2.5,2.3-5.3,2.8-8.1c0.4-2.7,0.2-5.3-0.5-7.8
						c-0.8-2.6-2.4-4.9-4.6-6.6c-2-1.8-4.6-3-7.3-3.4c-2.6-0.3-5.2-0.1-7.7,0.8c-2.6,0.8-5.1,2.2-7.6,4.1c-2.5,1.9-4.8,4.1-6.9,6.6
						L223.3,886.8L223.3,886.8z M191.2,787l33.4,41.2L161,879.7l-13.4-16.5l51.2-41.5l-19.9-24.6L191.2,787z M156.2,728l26.4,46
						l-71.1,40.8l-10.6-18.5l57.1-32.8L142.3,736L156.2,728L156.2,728z M61.8,715.2l-9-29.6c-1.6-5.2-2.3-10-2.3-14.2
						c0-4.3,0.8-8.1,2.2-11.3c1.4-3.2,3.5-6,6.2-8.3c2.9-2.3,6.1-4,9.7-5l0.9-0.3c3.5-1.1,7.2-1.5,10.9-1.2c3.5,0.3,6.7,1.5,9.7,3.5
						c3.2,2.2,6,5,8.1,8.2c2.4,3.5,4.4,7.9,6,13.1l2.8,9.2l27.1-8.2l6.2,20.4L61.8,715.2L61.8,715.2z M70.3,690.3l23.2-7l-2.6-8.5
						c-1.3-4.2-3.2-6.9-5.8-8.1c-2.6-1.2-5.7-1.3-9.1-0.3l-1.2,0.4c-3.5,1.1-5.9,2.8-7.1,5.2c-1.2,2.4-1.2,5.7,0.1,9.8L70.3,690.3
						L70.3,690.3z M36.8,614l-3-23.5l78.2-35.2l2.6,20.7l-15.8,7.1l3.4,26.9l17.2,3.2l2.1,16.8L36.8,614L36.8,614z M85.3,589.1
						l-27.9,12.5l30.2,5.7L85.3,589.1L85.3,589.1z M70.6,508.3l2.1-33.8l43.6,2.7l-1,16.6l-9.1-0.6c3,2.4,5.3,5.5,6.8,9
						c1.6,3.6,2.3,8.1,2,13.3c-0.2,5-1.6,9.9-3.9,14.3c-2.2,4.2-5.3,7.8-9.1,10.7c-4,3-8.5,5.1-13.3,6.4c-5.4,1.4-11.1,2-16.7,1.5
						l-1.7-0.1c-5.7-0.3-11.4-1.6-16.7-3.9c-5-2.2-9.2-5.2-12.7-8.9c-3.5-3.7-6.1-8.1-7.8-12.9c-1.8-5.1-2.5-10.6-2.1-16
						c0.6-9.6,3.2-17,7.7-22.4c4.5-5.3,11-8.4,19.3-9.4l1.2,19.8c-4.3,0.8-7.5,2.2-9.6,4.5c-2.1,2.4-3.3,5.4-3.4,8.5
						c-0.1,2.2,0.2,4.4,1,6.6c0.9,2.2,2.2,4.2,4.1,5.7c2.2,1.9,4.8,3.3,7.5,4.2c3.1,1.1,6.9,1.8,11.3,2.1l3.6,0.2
						c9,0.5,15.7-0.5,20-3.2c4.3-2.7,6.6-6.7,6.9-12.2c0.3-4.5-0.8-8.2-3.3-11c-2.4-2.8-5.8-4.4-10-4.6l-2-0.1l-0.8,13.7L70.6,508.3
						L70.6,508.3z M40.3,441l13.8-54.1l14.8,3.8l-8.5,33.5l16.7,4.3l6.2-24.5l14.1,3.6L91.2,432l19,4.8l8.8-34.5l14.8,3.8
						l-14.1,55.2L40.3,441z"/>
				</g>
			</g>
		</g>
	</g>
</g>
</svg>
